<?xml version="1.0" encoding="utf-8"?>
<!-- Generator: Adobe Illustrator 15.0.0, SVG Export Plug-In . SVG Version: 6.00 Build 0)  -->
<!DOCTYPE svg PUBLIC "-//W3C//DTD SVG 1.1//EN" "http://www.w3.org/Graphics/SVG/1.1/DTD/svg11.dtd">
<svg version="1.1" id="Capa_1" xmlns="http://www.w3.org/2000/svg" xmlns:xlink="http://www.w3.org/1999/xlink" x="0px" y="0px"
	 width="216px" height="146px" viewBox="0 0 216 146" enable-background="new 0 0 216 146" xml:space="preserve">
<g>
	<path d="M71.346,66.18l-22.73,23.655v39.912c0,1.124,0.911,2.036,2.036,2.036h27.6c1.124,0,2.036-0.912,2.036-2.036V68.522
		L73.92,66.18H71.346z"/>
	<path d="M127.563,84.731h-27.6c-1.124,0-2.035,0.912-2.035,2.036v42.979c0,1.124,0.911,2.036,2.035,2.036h27.6
		c1.126,0,2.035-0.912,2.035-2.036V86.768C129.599,85.644,128.689,84.731,127.563,84.731z"/>
	<path d="M175.868,41.828c-1.055,0.551-2.242,0.843-3.435,0.843c-1.731,0-3.421-0.61-4.75-1.724l-5.015-4.191l-18.14,19.789v73.203
		c0,1.123,0.912,2.036,2.036,2.036h27.599c1.124,0,2.036-0.913,2.036-2.036V41.62C176.086,41.688,175.985,41.767,175.868,41.828z"/>
	<path d="M116.246,75.223c1.554,0.567,3.29,0.148,4.409-1.069l41.857-45.663l9.796,8.188c0.477,0.399,1.148,0.473,1.701,0.184
		c0.552-0.29,0.878-0.879,0.822-1.502l-2.124-23.738c-0.074-0.848-0.824-1.474-1.672-1.398l-23.739,2.123
		c-0.62,0.056-1.148,0.479-1.332,1.074c-0.062,0.197-0.084,0.399-0.065,0.597c0.034,0.399,0.227,0.778,0.546,1.044l9.812,8.202
		l-39.761,43.375L71.103,49.935c-1.519-0.557-3.222-0.164-4.342,0.999L38.937,79.889c-1.558,1.622-1.506,4.198,0.114,5.758
		c0.79,0.761,1.807,1.136,2.82,1.136c1.07,0,2.137-0.42,2.938-1.25l25.979-27.037L116.246,75.223z"/>
</g>
</svg>
