<?xml version="1.0" encoding="utf-8"?>
<!-- Generator: Adobe Illustrator 15.0.0, SVG Export Plug-In . SVG Version: 6.00 Build 0)  -->
<!DOCTYPE svg PUBLIC "-//W3C//DTD SVG 1.1//EN" "http://www.w3.org/Graphics/SVG/1.1/DTD/svg11.dtd">
<svg version="1.1" id="Capa_1" xmlns="http://www.w3.org/2000/svg" xmlns:xlink="http://www.w3.org/1999/xlink" x="0px" y="0px"
	 width="216px" height="146px" viewBox="0 0 216 146" enable-background="new 0 0 216 146" xml:space="preserve">
<g id="Layer_2">
</g>
<path d="M123.409,91.376c0.204,0.861,0.341,1.731,0.341,2.623c0,2.788,0,2.464,0,5.252c0,11.597-17.63,20.999-39.375,20.999
	S45,110.848,45,99.251c0-2.788,0-2.464,0-5.252c0-0.892,0.136-1.762,0.341-2.623c2.425,10.357,18.957,18.373,39.034,18.373
	S120.983,101.733,123.409,91.376z M84.375,125.499c-20.077,0-36.608-8.016-39.034-18.373c-0.205,0.861-0.341,1.731-0.341,2.623
	c0,2.788,0,2.464,0,5.252C45,126.598,62.63,136,84.375,136s39.375-9.402,39.375-20.999c0-2.788,0-2.464,0-5.252
	c0-0.892-0.137-1.762-0.341-2.623C120.983,117.483,104.452,125.499,84.375,125.499z M84.375,62.5C62.63,62.5,45,71.903,45,83.501
	C45,95.098,62.63,104.5,84.375,104.5s39.375-9.402,39.375-20.999C123.75,71.901,106.12,62.5,84.375,62.5z M131.625,104.5
	c-0.888,0-1.754-0.037-2.626-0.063c0,5.618,0,10.194,0,10.494c0.872,0.025,1.738,0.069,2.626,0.069
	C153.37,115,171,105.599,171,93.998c0-2.789,0-2.462,0-5.249c0-0.893-0.137-1.764-0.341-2.626
	C168.233,96.483,151.701,104.5,131.625,104.5z M131.625,52c21.746,0,39.375-9.401,39.375-21C171,19.401,153.371,10,131.625,10
	S92.25,19.401,92.25,31C92.25,42.598,109.879,52,131.625,52z M131.625,57.25c-20.076,0-36.608-8.017-39.034-18.375
	c-0.205,0.861-0.341,1.732-0.341,2.625c0,2.788,0,2.461,0,5.25c0,4.457,2.625,8.583,7.066,11.985
	c7.674,1.56,14.348,4.273,19.404,7.838c4.047,0.75,8.378,1.175,12.904,1.175c21.745,0,39.375-9.402,39.375-21
	c0-2.788,0-2.461,0-5.25c0-0.892-0.137-1.764-0.341-2.625C168.233,49.233,151.701,57.25,131.625,57.25z M131.625,73
	c-2.211,0-4.362-0.11-6.473-0.299c2.44,3.26,3.827,6.877,3.843,10.731c0.87,0.025,1.742,0.07,2.63,0.07
	c21.745,0,39.375-9.402,39.375-21c0-2.788,0-2.461,0-5.25c0-0.892-0.137-1.764-0.341-2.625C168.233,64.983,151.701,73,131.625,73z
	 M131.625,88.75c-0.888,0-1.754-0.037-2.626-0.063c0,2.92,0,6.688,0,10.494c0.872,0.025,1.738,0.069,2.626,0.069
	C153.37,99.25,171,89.849,171,78.248c0-2.789,0-2.462,0-5.249c0-0.892-0.137-1.764-0.341-2.625
	C168.233,80.733,151.701,88.75,131.625,88.75z"/>
</svg>
