<?xml version="1.0" encoding="utf-8"?>
<!-- Generator: Adobe Illustrator 15.0.0, SVG Export Plug-In . SVG Version: 6.00 Build 0)  -->
<!DOCTYPE svg PUBLIC "-//W3C//DTD SVG 1.1//EN" "http://www.w3.org/Graphics/SVG/1.1/DTD/svg11.dtd">
<svg version="1.1"
	 id="Capa_1" xmlns:dc="http://purl.org/dc/elements/1.1/" inkscape:version="0.48.2 r9819" sodipodi:docname="block.svg" xmlns:cc="http://creativecommons.org/ns#" xmlns:svg="http://www.w3.org/2000/svg" xmlns:rdf="http://www.w3.org/1999/02/22-rdf-syntax-ns#" xmlns:inkscape="http://www.inkscape.org/namespaces/inkscape" xmlns:sodipodi="http://sodipodi.sourceforge.net/DTD/sodipodi-0.dtd"
	 xmlns="http://www.w3.org/2000/svg" xmlns:xlink="http://www.w3.org/1999/xlink" x="0px" y="0px" width="216px" height="146px"
	 viewBox="0 0 216 146" enable-background="new 0 0 216 146" xml:space="preserve">
<sodipodi:namedview  id="namedview15" objecttolerance="10" borderopacity="1" inkscape:window-width="640" bordercolor="#666666" guidetolerance="10" pagecolor="#ffffff" gridtolerance="10" inkscape:pageopacity="0" inkscape:pageshadow="2" inkscape:window-height="480" showgrid="false" inkscape:zoom="1.6164384" inkscape:cx="108" inkscape:cy="73" inkscape:window-x="0" inkscape:window-y="0" inkscape:window-maximized="0" inkscape:current-layer="Capa_1">
	</sodipodi:namedview>
<g>
	<path d="M150.438,23.566h11.487v91.185h-11.487V23.566z M127.562,26.866l-1.589,0.494c-1.99,0.63-4.331-0.246-5.137-1.915
		c-0.388-0.808-0.404-1.7-0.051-2.516c0.411-0.945,1.283-1.683,2.393-2.027l17.934-5.587l2.185,15.979
		c0.121,0.814-0.107,1.645-0.646,2.333c-0.66,0.845-1.722,1.394-2.911,1.508c-0.143,0.015-0.303,0.021-0.456,0.021
		c-2.028,0-3.753-1.294-4.008-3.004l-0.275-2.417c-20.729,28.7-68.46,59.461-70.532,60.785c-0.704,0.45-1.543,0.689-2.433,0.689
		c-1.199,0-2.328-0.443-3.093-1.219c-0.706-0.708-1.035-1.613-0.933-2.543c0.106-0.966,0.685-1.853,1.59-2.427
		C60.084,84.709,107.36,54.147,127.562,26.866z M141.154,43.819v70.931h-11.487V43.819H141.154z M121.065,64.896v49.855h-11.488
		V64.896H121.065z M100.292,86.793v27.957H88.806V86.793H100.292z M78.33,97.744v17.006H66.845V97.744H78.33z M165.5,125.697H49.137
		v-8.524h116.364L165.5,125.697L165.5,125.697z"/>
</g>
</svg>
