<?xml version="1.0" encoding="utf-8"?>
<!-- Generator: Adobe Illustrator 15.0.0, SVG Export Plug-In . SVG Version: 6.00 Build 0)  -->
<!DOCTYPE svg PUBLIC "-//W3C//DTD SVG 1.1//EN" "http://www.w3.org/Graphics/SVG/1.1/DTD/svg11.dtd">
<svg version="1.1" id="Capa_1" xmlns="http://www.w3.org/2000/svg" xmlns:xlink="http://www.w3.org/1999/xlink" x="0px" y="0px"
	 width="216px" height="146px" viewBox="0 0 216 146" enable-background="new 0 0 216 146" xml:space="preserve">
<g>
	<path d="M193.712,123.482l-3.054-23.964c-1.043-8.217-8.034-14.29-16.316-14.29h-22.51c-8.282,0-15.272,6.073-16.314,14.29
		l-3.056,24.006c-0.213,1.68,0.305,3.791,1.424,5.058c1.118,1.27,2.729,2.417,4.417,2.417h49.569c1.689,0,3.298-1.172,4.418-2.438
		C193.407,127.291,193.925,125.16,193.712,123.482z"/>
	<circle cx="163.085" cy="62.214" r="17.521"/>
	<path d="M90.356,123.482l-3.054-23.964c-1.043-8.217-8.034-14.29-16.316-14.29h-22.51c-8.282,0-15.272,6.073-16.314,14.29
		l-3.056,24.006c-0.213,1.68,0.305,3.791,1.424,5.058c1.118,1.27,2.729,2.417,4.417,2.417h49.569c1.689,0,3.298-1.172,4.418-2.438
		C90.051,127.291,90.569,125.16,90.356,123.482z"/>
	<circle cx="59.729" cy="62.214" r="17.521"/>
	<path d="M127.028,21.694c-1.138-0.823-3.748-2.147-5.799-2.942c0,0-1.271-0.493-4.497-0.493c-2.168,0-2.642,0.151-2.642,0.151
		c-2.096,0.671-4.72,1.736-5.831,2.366s-4.369,3.897-5.199,5.031c-0.831,1.134-2.989,6.55-3.542,8.679c0,0-0.549,2.113-0.549,5.817
		c0,2.815,0.258,3.924,0.258,3.924c0.499,2.143,1.329,4.902,1.846,6.132c0.517,1.229,3.127,4.701,4.021,5.563
		c0.894,0.862,5.44,3.112,7.532,3.794c0,0,0.732,0.239,3.455,0.239c0.609,0,0.609,0,0.609,0c0.807-0.057,1.812-0.138,2.235-0.181
		c0.423-0.042,1.806-0.22,2.19-0.281c0.385-0.062,1.544-0.354,1.834-0.447c0.291-0.093,0.848-0.644,0.889-0.992
		c0.041-0.349,0.114-2.281,0.133-3.266c0,0,0,0,0-1.025c0-3.807-0.028-4.432-0.028-4.432c-0.099-2.198-0.232-4.68-0.298-5.516
		c-0.066-0.836,0.082-2.134,0.387-2.086c0.304,0.047,2.167,0.207,3.208,0.27c0,0,0,0,1.456,0c1.686,0,1.686,0,1.686,0
		c1.147-0.063,2.416-0.147,2.82-0.187c0.404-0.039,1.162,0.052,1.111,0.323c-0.05,0.271-0.188,1.75-0.223,2.25
		c-0.035,0.5-0.127,2.529-0.149,3.156s-0.071,2.927-0.081,3.596c-0.01,0.668-0.018,2.867-0.018,3.505s0,1.672,0,2.296
		c0,0.625,0.053,2.539,0.075,3.013c0.022,0.475-1.271,1.641-2.987,2.079c-1.715,0.438-8.075,1.531-10.259,1.8
		c0,0-2.331,0.286-5.433,0.286c-4.042,0-7.265-0.715-7.265-0.715c-2.147-0.477-5.332-1.454-7.075-2.17
		c-1.744-0.717-6.624-4.362-7.832-5.604c-1.208-1.242-4.155-6.854-4.861-8.938c0,0-0.797-2.352-0.797-5.958
		c0-4.467,1.05-7.904,1.05-7.904c0.643-2.104,1.96-5.212,2.929-6.907c0.968-1.695,5.649-6.186,7.215-7.261
		c1.565-1.075,8.173-3.479,10.319-3.967c0,0,3.524-0.803,7.646-0.803c3.564,0,5.337,0.338,5.337,0.338
		c2.161,0.413,5.096,1.152,6.522,1.642s4.949,2.795,4.744,3.46s-0.864,2.912-1.044,3.563s-0.777,2.399-1.049,2.399
		S128.166,22.518,127.028,21.694z"/>
	<path fill="#050505" d="M95.015,109.294c0.388,0.386,0.913,0.602,1.459,0.602l17.495-0.035v3.831
		c0.002,0.836,0.555,1.586,1.328,1.904c0.771,0.315,1.658,0.135,2.246-0.459l9.092-9.181c1.061-1.07,1.059-2.801-0.01-3.867
		l-9.137-9.135c-0.59-0.591-1.479-0.768-2.25-0.445c-0.77,0.318-1.271,1.074-1.27,1.908v3.832l-17.522,0.037
		c-1.139,0.004-2.058,0.928-2.056,2.067l0.018,7.483C94.409,108.384,94.628,108.909,95.015,109.294z"/>
</g>
</svg>
