<?xml version="1.0" encoding="utf-8"?>
<!-- Generator: Adobe Illustrator 15.0.0, SVG Export Plug-In . SVG Version: 6.00 Build 0)  -->
<!DOCTYPE svg PUBLIC "-//W3C//DTD SVG 1.1//EN" "http://www.w3.org/Graphics/SVG/1.1/DTD/svg11.dtd">
<svg version="1.1" id="Capa_1" xmlns="http://www.w3.org/2000/svg" xmlns:xlink="http://www.w3.org/1999/xlink" x="0px" y="0px"
	 width="216px" height="146px" viewBox="0 0 216 146" enable-background="new 0 0 216 146" xml:space="preserve">
<path d="M174.921,73.973l-0.174-0.189c-7.877-8.626-16.911-17.162-27.617-26.096c-1.619-1.351-8.948-7.15-9.291-7.442
	s-0.698-0.546-0.623-0.936c0.089-0.462,0.219-0.962,0.372-1.488c0.136-0.469,0.277-0.954,0.384-1.468
	c0.195-0.934,0.319-1.765,0.379-2.543l0.003-0.042c0.067-0.867,0.191-2.482-0.815-3.559c-0.354-0.377-1.003-0.827-2.09-0.827
	c-0.8,0-1.585,0.242-2.054,0.387l-0.052,0.017c-1.275,0.391-2.411,0.988-3.26,1.465c-0.49,0.276-0.979,0.566-1.453,0.863
	c-0.143,0.089-0.285,0.186-0.428,0.285c-0.369,0.254-0.542,0.488-1.081,0.029c-0.743-0.655-9.081-7.768-31.509-18.225
	c-3.597-1.677-7.329-3.218-11.09-4.578c-3.688-1.333-7.754-2.593-12.43-3.851l-0.143-0.039c-0.544-0.147-1.133-0.283-1.754-0.283
	c-1.241,0-2.281,0.572-2.929,1.61c-0.535,0.856-0.669,1.898-0.369,2.857c0.314,1.005,1.06,1.825,2.043,2.249l2.512,1.081
	c9.959,4.284,19.835,10.215,30.194,18.134c3.55,2.714,6.761,5.33,9.815,7.996c1.443,1.26,2.884,2.539,4.281,3.801
	c0.124,0.112,1.183,1.12,1.183,1.12l-64.282,76.275c-2.021,2.397-2.996,5.159-2.82,7.984c0.168,2.7,1.42,5.314,3.437,7.173
	c1.97,1.816,4.54,2.815,7.236,2.815c0.337,0,0.679-0.016,1.014-0.049c3.046-0.291,5.854-1.914,7.704-4.452
	c0.559-0.767,54.97-75.441,58.021-79.635c8.46,8.736,16.446,18.161,23.732,28.014c1.434,1.938,3.97,5.55,4.085,5.725
	c0.49,0.75,1.046,1.601,1.832,2.227c0.594,0.473,1.285,0.724,1.999,0.724c1.114,0,2.02-0.603,2.603-1.055l13.184-10.21
	c1.572-1.367,1.619-2.751,1.619-2.751C176.388,75.564,175.471,74.57,174.921,73.973z"/>
</svg>
