<?xml version="1.0" encoding="utf-8"?>
<!-- Generator: Adobe Illustrator 15.0.0, SVG Export Plug-In . SVG Version: 6.00 Build 0)  -->
<!DOCTYPE svg PUBLIC "-//W3C//DTD SVG 1.1//EN" "http://www.w3.org/Graphics/SVG/1.1/DTD/svg11.dtd">
<svg version="1.1" id="Layer_1" xmlns="http://www.w3.org/2000/svg" xmlns:xlink="http://www.w3.org/1999/xlink" x="0px" y="0px"
	 width="50px" height="50px" viewBox="0 0 50 50" enable-background="new 0 0 50 50" xml:space="preserve">
<path d="M41.616,13.06c-9.449-3.031-16.612-7.074-16.612-7.074h-0.011c0,0-7.058,4.098-16.609,7.074c0,0-3.351,21.315,16.56,30.954
	h0.11C44.968,34.375,41.616,13.06,41.616,13.06z M25.231,41.884L25,42.006l-0.233-0.123C10.064,34.145,9.786,19.176,10.05,14.773
	l0.02-0.338l0.322-0.106c6.917-2.291,12.364-5.057,14.384-6.14l0.234-0.125l0.235,0.123c2.041,1.072,7.524,3.815,14.377,6.135
	l0.315,0.107l0.022,0.332C40.266,19.148,40.1,34.074,25.231,41.884z M38.982,15.16c-6.523-2.235-11.778-4.826-13.968-5.965
	c-2.172,1.152-7.397,3.766-13.985,5.976C10.815,19.776,11.404,33.568,25,40.876C38.751,33.5,39.238,19.744,38.982,15.16z
	 M24.864,34.438c-5.586,0-10.114-4.527-10.114-10.113c0-5.586,4.528-10.114,10.114-10.114c5.586,0,10.115,4.528,10.115,10.114
	C34.979,29.909,30.451,34.438,24.864,34.438z M25,33.562c-0.529,0-1.061-0.047-1.579-0.138c-0.272-0.047-0.454-0.306-0.407-0.577
	c0.048-0.271,0.302-0.455,0.579-0.408c0.928,0.162,1.903,0.162,2.829-0.002c0.27-0.052,0.531,0.133,0.579,0.404
	c0.048,0.272-0.133,0.531-0.405,0.579C26.073,33.516,25.536,33.562,25,33.562z M20.685,32.411c-0.085,0-0.17-0.021-0.25-0.067
	c-0.925-0.533-1.744-1.219-2.434-2.037c-0.178-0.211-0.151-0.527,0.06-0.705c0.211-0.18,0.527-0.149,0.705,0.061
	c0.614,0.729,1.344,1.34,2.169,1.814c0.239,0.14,0.321,0.444,0.183,0.685C21.025,32.32,20.857,32.411,20.685,32.411z M29.328,32.402
	c-0.172,0-0.342-0.088-0.434-0.25c-0.14-0.238-0.058-0.545,0.183-0.682c0.821-0.479,1.551-1.091,2.165-1.82
	c0.177-0.213,0.492-0.239,0.703-0.062c0.213,0.178,0.238,0.493,0.062,0.704c-0.688,0.819-1.506,1.507-2.43,2.042
	C29.5,32.382,29.413,32.402,29.328,32.402z M16.878,27.889c-0.204,0-0.396-0.125-0.47-0.328c-0.366-1-0.553-2.052-0.555-3.125
	c0-0.276,0.223-0.5,0.499-0.501c0,0,0,0,0.001,0c0.276,0,0.5,0.223,0.5,0.499c0.002,0.957,0.168,1.894,0.494,2.784
	c0.095,0.259-0.039,0.546-0.298,0.642C16.994,27.879,16.936,27.889,16.878,27.889z M33.127,27.874c-0.059,0-0.113-0.01-0.171-0.03
	c-0.261-0.094-0.396-0.381-0.299-0.641c0.323-0.891,0.487-1.829,0.487-2.786c0-0.276,0.225-0.518,0.5-0.518s0.5,0.206,0.5,0.482
	v0.035c0,1.074-0.186,2.126-0.549,3.127C33.521,27.748,33.332,27.874,33.127,27.874z M16.867,21.977c-0.057,0-0.114-0.009-0.17-0.03
	c-0.26-0.094-0.394-0.381-0.3-0.64c0.363-1.004,0.896-1.93,1.583-2.752c0.177-0.211,0.492-0.241,0.705-0.063
	c0.212,0.177,0.24,0.493,0.063,0.705c-0.613,0.732-1.087,1.557-1.41,2.45C17.264,21.851,17.072,21.977,16.867,21.977z
	 M33.115,21.928c-0.204,0-0.396-0.125-0.471-0.327c-0.328-0.891-0.807-1.712-1.424-2.441c-0.178-0.211-0.152-0.526,0.061-0.705
	c0.211-0.179,0.525-0.152,0.703,0.059c0.692,0.818,1.23,1.741,1.601,2.741c0.095,0.259-0.037,0.546-0.296,0.642
	C33.23,21.918,33.173,21.928,33.115,21.928z M20.658,17.44c-0.172,0-0.34-0.089-0.433-0.249c-0.139-0.239-0.058-0.544,0.181-0.684
	c0.925-0.539,1.928-0.907,2.979-1.094c0.278-0.049,0.532,0.133,0.58,0.404c0.048,0.272-0.133,0.532-0.404,0.58
	c-0.937,0.167-1.83,0.495-2.653,0.974C20.83,17.418,20.743,17.44,20.658,17.44z M29.298,17.414c-0.084,0-0.17-0.021-0.249-0.066
	c-0.826-0.475-1.721-0.797-2.658-0.958c-0.271-0.046-0.455-0.305-0.408-0.577c0.045-0.271,0.307-0.452,0.576-0.408
	c1.055,0.181,2.061,0.543,2.988,1.076c0.239,0.138,0.322,0.443,0.186,0.683C29.641,17.324,29.471,17.414,29.298,17.414z"/>
<g>
	<path d="M26.605,21.092c-0.383-0.22-0.852-0.33-1.403-0.33c-0.368,0-0.734,0.078-1.098,0.234c-0.364,0.156-0.688,0.39-0.972,0.702
		c-0.284,0.312-0.514,0.702-0.69,1.17c-0.176,0.468-0.264,1.018-0.264,1.65c0,0.48,0.066,0.924,0.198,1.332
		c0.132,0.407,0.322,0.762,0.57,1.062c0.248,0.301,0.552,0.534,0.912,0.702s0.772,0.252,1.236,0.252
		c0.104,0,0.222-0.006,0.354-0.018c0.132-0.012,0.26-0.026,0.384-0.042s0.238-0.038,0.342-0.066c0.104-0.027,0.18-0.058,0.229-0.09
		c0.016-0.096,0.025-0.216,0.029-0.359c0.004-0.145,0.006-0.305,0.006-0.48c0-0.648-0.012-1.126-0.035-1.434
		c-0.024-0.308-0.041-0.518-0.049-0.63c0.08,0.016,0.187,0.03,0.318,0.042c0.133,0.012,0.322,0.018,0.57,0.018
		c0.287,0,0.502-0.006,0.642-0.018c0.14-0.012,0.25-0.026,0.33-0.042c-0.017,0.064-0.03,0.168-0.042,0.312s-0.021,0.31-0.029,0.498
		c-0.009,0.188-0.015,0.389-0.019,0.6c-0.005,0.213-0.006,0.414-0.006,0.606v0.396c0,0.2,0.001,0.387,0.006,0.559
		c0.004,0.172,0.014,0.294,0.03,0.366c-0.528,0.151-1.062,0.271-1.603,0.359s-1.074,0.132-1.602,0.132
		c-0.688,0-1.322-0.09-1.902-0.27s-1.08-0.444-1.5-0.792c-0.42-0.349-0.748-0.769-0.984-1.261c-0.236-0.491-0.354-1.045-0.354-1.662
		c0-0.76,0.126-1.426,0.378-1.998c0.252-0.572,0.6-1.048,1.044-1.428c0.444-0.38,0.97-0.666,1.578-0.858s1.264-0.288,1.968-0.288
		c0.607,0,1.134,0.062,1.578,0.186c0.444,0.124,0.883,0.302,1.314,0.534c-0.064,0.208-0.127,0.412-0.187,0.612
		c-0.06,0.2-0.11,0.404-0.149,0.612h-0.168C27.311,21.602,26.99,21.312,26.605,21.092z"/>
</g>
</svg>
