<?xml version="1.0" encoding="utf-8"?>
<!-- Generator: Adobe Illustrator 16.0.0, SVG Export Plug-In . SVG Version: 6.00 Build 0)  -->
<!DOCTYPE svg PUBLIC "-//W3C//DTD SVG 1.1//EN" "http://www.w3.org/Graphics/SVG/1.1/DTD/svg11.dtd">
<svg version="1.1" id="Layer_1" xmlns="http://www.w3.org/2000/svg" xmlns:xlink="http://www.w3.org/1999/xlink" x="0px" y="0px"
	 width="126px" height="126px" viewBox="0 0 126 126" enable-background="new 0 0 126 126" xml:space="preserve">
<g>
	<path d="M36.731,59.449L19.984,76.877v29.406c0,0.828,0.671,1.5,1.5,1.5h20.334c0.828,0,1.5-0.672,1.5-1.5V61.175l-4.69-1.726
		H36.731z"/>
	<path d="M78.151,73.117H57.817c-0.828,0-1.5,0.672-1.5,1.5v31.666c0,0.828,0.672,1.5,1.5,1.5h20.334c0.829,0,1.5-0.672,1.5-1.5
		V74.617C79.651,73.789,78.98,73.117,78.151,73.117z"/>
	<path d="M113.74,41.507c-0.777,0.406-1.652,0.621-2.53,0.621c-1.277,0-2.521-0.45-3.5-1.27l-3.695-3.088L90.65,52.35v53.934
		c0,0.828,0.672,1.5,1.5,1.5h20.334c0.829,0,1.5-0.672,1.5-1.5V41.354C113.901,41.404,113.826,41.462,113.74,41.507z"/>
	<path d="M69.813,66.111c1.144,0.419,2.424,0.109,3.248-0.788L103.9,31.68l7.217,6.033c0.352,0.294,0.847,0.348,1.254,0.135
		s0.646-0.648,0.605-1.107l-1.564-17.489c-0.055-0.625-0.607-1.086-1.232-1.03l-17.49,1.564c-0.458,0.041-0.846,0.353-0.982,0.791
		c-0.045,0.145-0.061,0.294-0.048,0.44c0.026,0.294,0.167,0.573,0.403,0.769l7.229,6.043L69.997,59.786L36.552,47.48
		c-1.119-0.41-2.374-0.121-3.199,0.736l-20.5,21.333c-1.148,1.195-1.11,3.094,0.084,4.242c0.582,0.56,1.331,0.837,2.078,0.837
		c0.788,0,1.575-0.309,2.164-0.921l19.141-19.92L69.813,66.111z"/>
</g>
</svg>
