<?xml version="1.0" encoding="utf-8"?>
<!-- Generator: Adobe Illustrator 15.0.0, SVG Export Plug-In . SVG Version: 6.00 Build 0)  -->
<!DOCTYPE svg PUBLIC "-//W3C//DTD SVG 1.1//EN" "http://www.w3.org/Graphics/SVG/1.1/DTD/svg11.dtd">
<svg version="1.1" id="Layer_1" xmlns="http://www.w3.org/2000/svg" xmlns:xlink="http://www.w3.org/1999/xlink" x="0px" y="0px"
	 width="512px" height="512px" viewBox="0 0 512 512" enable-background="new 0 0 512 512" xml:space="preserve">
<path d="M432.375,261.624l-0.495-0.538c-22.455-24.592-48.208-48.927-78.729-74.395c-4.614-3.851-25.511-20.384-26.486-21.215
	s-1.989-1.555-1.775-2.666c0.254-1.319,0.624-2.743,1.061-4.243c0.388-1.336,0.788-2.719,1.094-4.184
	c0.557-2.661,0.91-5.032,1.08-7.251l0.01-0.12c0.19-2.474,0.546-7.078-2.327-10.145c-1.008-1.074-2.856-2.356-5.955-2.356
	c-2.281,0-4.521,0.689-5.856,1.102l-0.147,0.046c-3.634,1.114-6.874,2.817-9.291,4.177c-1.397,0.787-2.795,1.614-4.146,2.46
	c-0.404,0.253-0.812,0.53-1.218,0.812c-1.052,0.725-1.545,1.392-3.08,0.084c-2.121-1.867-25.889-22.144-89.824-51.953
	c-10.255-4.781-20.893-9.172-31.615-13.05c-10.514-3.801-22.106-7.393-35.433-10.979l-0.407-0.11c-1.55-0.419-3.229-0.808-5-0.808
	c-3.539,0-6.504,1.63-8.351,4.59c-1.523,2.441-1.906,5.412-1.049,8.148c0.896,2.866,3.021,5.201,5.825,6.408l7.161,3.083
	c28.388,12.212,56.542,29.121,86.072,51.693c10.122,7.738,19.275,15.194,27.981,22.795c4.114,3.592,8.22,7.237,12.205,10.835
	c0.353,0.318,3.371,3.191,3.371,3.191L83.801,394.475c-5.761,6.834-8.54,14.705-8.039,22.76c0.479,7.697,4.049,15.15,9.796,20.447
	c5.617,5.178,12.942,8.026,20.628,8.026c0.962,0,1.936-0.046,2.892-0.138c8.684-0.831,16.688-5.458,21.96-12.695
	c1.593-2.185,156.703-215.057,165.399-227.015c24.118,24.903,46.883,51.772,67.655,79.861c4.086,5.523,11.317,15.819,11.645,16.316
	c1.396,2.141,2.981,4.566,5.224,6.35c1.693,1.348,3.663,2.062,5.697,2.062c3.176,0,5.756-1.716,7.42-3.005l37.582-29.107
	c4.482-3.896,4.615-7.84,4.615-7.84C436.559,266.161,433.944,263.325,432.375,261.624z"/>
</svg>
