<?xml version="1.0" encoding="utf-8"?>
<!-- Generator: Adobe Illustrator 17.1.0, SVG Export Plug-In . SVG Version: 6.00 Build 0)  -->
<!DOCTYPE svg PUBLIC "-//W3C//DTD SVG 1.1//EN" "http://www.w3.org/Graphics/SVG/1.1/DTD/svg11.dtd">
<svg version="1.1" id="Layer_1" xmlns="http://www.w3.org/2000/svg" xmlns:xlink="http://www.w3.org/1999/xlink" x="0px" y="0px"
	 width="1000px" height="1000px" viewBox="0 0 1000 1000" enable-background="new 0 0 1000 1000" xml:space="preserve">
<g>
	<path d="M156,854h688c5.5,0,10-4.5,10-10V156c0-5.5-4.5-10-10-10H156c-5.5,0-10,4.5-10,10v78.5c11.9,1.9,21,12.2,21,24.7v88
		c0,12.4-9.1,22.8-21,24.7v256.4c11.9,1.9,21,12.2,21,24.7v88c0,12.4-9.1,22.8-21,24.7V844C146,849.5,150.5,854,156,854z M500,305.2
		c107.6,0,194.8,87.2,194.8,194.8S607.6,694.8,500,694.8c-107.6,0-194.8-87.2-194.8-194.8S392.4,305.2,500,305.2z"/>
	<path d="M47,97v806c0,27.6,22.4,50,50,50h806c27.6,0,50-22.4,50-50V97c0-27.6-22.4-50-50-50H97C69.4,47,47,69.4,47,97z M95,652.9
		c0-12.4,9.1-22.8,21-24.7V371.8c-11.9-1.9-21-12.2-21-24.7v-88c0-12.4,9.1-22.8,21-24.7V156c0-22.1,17.9-40,40-40h688
		c22.1,0,40,17.9,40,40v688c0,22.1-17.9,40-40,40H156c-22.1,0-40-17.9-40-40v-78.4c-11.9-1.9-21-12.2-21-24.7V652.9z"/>
	<circle cx="500" cy="500" r="51"/>
	<path d="M499.8,416h0.4c10.9,0,19.8-8.9,19.8-19.8v-34.4c0-10.9-8.9-19.8-19.8-19.8h-0.4c-10.9,0-19.8,8.9-19.8,19.8v34.4
		C480,407.1,488.9,416,499.8,416z"/>
	<path d="M603.8,520h34.4c10.9,0,19.8-8.9,19.8-19.8v-0.4c0-10.9-8.9-19.8-19.8-19.8h-34.4c-10.9,0-19.8,8.9-19.8,19.8v0.4
		C584,511.1,592.9,520,603.8,520z"/>
	<path d="M500.2,584h-0.4c-10.9,0-19.8,8.9-19.8,19.8v34.4c0,10.9,8.9,19.8,19.8,19.8h0.4c10.9,0,19.8-8.9,19.8-19.8v-34.4
		C520,592.9,511.1,584,500.2,584z"/>
	<path d="M416,500.2v-0.4c0-10.9-8.9-19.8-19.8-19.8h-34.4c-10.9,0-19.8,8.9-19.8,19.8v0.4c0,10.9,8.9,19.8,19.8,19.8h34.4
		C407.1,520,416,511.2,416,500.2z"/>
</g>
</svg>
