<?xml version="1.0" encoding="UTF-8"?>
<!DOCTYPE svg PUBLIC "-//W3C//DTD SVG 1.1//EN" "http://www.w3.org/Graphics/SVG/1.1/DTD/svg11.dtd">
<!-- Creator: CorelDRAW X7 -->
<svg xmlns="http://www.w3.org/2000/svg" xml:space="preserve" width="5.2031in" height="1.29923in" version="1.1" style="shape-rendering:geometricPrecision; text-rendering:geometricPrecision; image-rendering:optimizeQuality; fill-rule:evenodd; clip-rule:evenodd"
viewBox="0 0 3823 955"
 xmlns:xlink="http://www.w3.org/1999/xlink">
 <defs>
  <style type="text/css">
   <![CDATA[
    .str0 {stroke:#E6E6E6;stroke-width:5.78523}
    .fil1 {fill:#FEFEFE}
    .fil0 {fill:#191A33}
   ]]>
  </style>
 </defs>
 <g id="Layer_x0020_1">
  <metadata id="CorelCorpID_0Corel-Layer"/>
  <polygon class="fil0 str0" points="3,952 3820,952 3820,3 3,3 "/>
  <polygon class="fil1" points="777,364 843,364 843,325 843,255 843,247 843,246 843,245 843,244 843,243 843,242 843,242 843,241 842,240 842,239 842,238 842,238 842,237 841,236 841,235 841,234 840,234 840,233 840,232 839,231 839,231 839,230 838,229 838,229 837,228 837,227 836,227 836,226 835,225 835,225 834,224 834,224 833,223 833,222 832,222 831,221 831,221 830,220 830,220 829,219 828,219 828,218 827,218 826,218 825,217 825,217 824,216 823,216 823,216 822,215 821,215 820,215 819,215 819,214 818,214 817,214 816,214 815,214 815,213 814,213 813,213 812,213 811,213 810,213 809,213 809,213 808,213 807,213 806,213 805,213 804,213 803,214 803,214 802,214 801,214 800,214 799,215 799,215 798,215 797,215 796,216 796,216 795,216 794,217 793,217 793,218 792,218 791,218 791,219 790,219 789,220 789,220 788,221 787,221 787,222 786,222 786,223 785,224 784,224 784,225 783,225 783,226 782,227 782,227 781,228 781,229 781,229 780,230 780,231 779,231 779,232 779,233 778,234 778,234 778,235 778,236 777,237 777,238 777,238 777,239 776,240 776,241 776,242 776,242 776,243 776,244 776,245 776,246 776,247 776,282 776,364 "/>
  <path class="fil1" d="M759 364l0 -71c-28,19 -52,43 -71,71l71 0z"/>
  <path class="fil1" d="M641 515c0,1 0,1 0,1 1,149 121,269 269,269 149,0 270,-121 270,-270 0,-148 -121,-269 -270,-269 -17,0 -34,2 -50,5l0 69c16,-4 33,-7 50,-7 112,0 202,91 202,202 0,112 -90,202 -202,202 -111,0 -202,-90 -202,-202 0,-18 -15,-33 -33,-33 -19,0 -34,15 -34,33z"/>
  <g id="_733387840">
   <path class="fil1" d="M1356 578c0,56 45,101 101,101 56,0 101,-45 101,-101 0,-55 -45,-101 -101,-101l0 0 -26 51 26 0c28,0 50,22 50,50 0,28 -22,51 -50,51 -28,0 -51,-23 -51,-51l0 -21 0 -17 0 -12 0 -51 0 -12 0 -24 0 -64 0 -1 0 -1 0 0 0 -1 0 0 0 -1 0 -1 0 0 0 -1 0 -1 -1 0 0 -1 0 0 0 -1 0 0 -1 -1 0 -1 0 0 0 -1 -1 0 0 -1 0 0 -1 -1 0 0 0 -1 -1 0 0 -1 0 0 -1 -1 0 0 -1 -1 0 0 0 0 -1 -1 0 0 -1 -1 0 0 -1 0 0 -1 -1 0 0 0 -1 -1 0 0 -1 0 0 -1 -1 0 0 0 -1 0 -1 -1 0 0 -1 0 0 0 -1 0 -1 -1 0 0 -1 0 0 0 -1 0 -1 0 0 0 -1 0 -1 0 0 0 -1 0 0 0 -1 0 -1 0 0 0 -1 0 -1 0 0 0 -1 0 -1 0 0 0 -1 1 0 0 -1 0 -1 0 0 0 -1 1 0 0 -1 0 0 0 -1 1 0 0 -1 0 0 1 -1 0 0 0 -1 1 0 0 -1 0 0 1 -1 0 0 1 -1 0 0 0 -1 1 0 0 0 1 -1 0 0 1 0 0 -1 1 0 0 0 1 -1 0 0 1 0 0 -1 1 0 0 0 1 0 1 -1 0 0 1 0 0 0 1 0 0 0 1 -1 1 0 0 0 1 0 1 0 0 0 1 0 0 0 1 0 1 0 50 0 14 0 24 0 12 0 51 0 12 0 17 0 8 0 13z"/>
   <path class="fil1" d="M1684 477c-56,0 -101,46 -101,101 0,56 45,101 101,101 56,0 101,-45 101,-101 0,-55 -45,-101 -101,-101zm0 51c28,0 51,22 51,50 0,28 -23,51 -51,51 -28,0 -50,-23 -50,-51 0,-28 22,-50 50,-50z"/>
   <path class="fil1" d="M1911 477c-55,0 -101,46 -101,101 0,56 46,101 101,101 56,0 101,-45 101,-101 0,-55 -45,-101 -101,-101zm0 51c28,0 51,22 51,50 0,28 -23,51 -51,51 -27,0 -50,-23 -50,-51 0,-28 23,-50 50,-50z"/>
   <path class="fil1" d="M2038 376l0 164 0 38c0,56 45,101 101,101l25 0 0 0 0 -1 -5 -9 -20 -41c-28,0 -51,-22 -51,-50l0 -38 0 -164 0 0 0 -1 0 -1 0 0 0 -1 0 -1 0 0 0 -1 0 0 -1 -1 0 -1 0 0 0 -1 0 0 -1 -1 0 -1 0 0 0 -1 -1 0 0 -1 0 0 0 -1 -1 0 0 -1 0 0 -1 -1 0 0 -1 -1 0 0 0 -1 -1 0 0 -1 -1 0 0 0 -1 -1 0 0 0 -1 -1 0 0 0 -1 -1 0 0 -1 0 -1 -1 0 0 -1 0 0 0 -1 -1 0 0 -1 0 0 0 -1 -1 -1 0 0 0 -1 0 0 0 -1 0 -1 -1 0 0 -1 0 0 0 -1 0 -1 0 0 0 -1 0 -1 0 0 0 -1 0 -1 0 0 0 -1 0 -1 0 0 1 -1 0 0 0 -1 0 -1 0 0 0 -1 1 0 0 -1 0 0 0 -1 1 -1 0 0 0 -1 0 0 1 -1 0 0 0 -1 1 0 0 -1 0 0 1 -1 0 0 1 0 0 -1 0 0 1 -1 0 0 1 -1 0 0 1 0 0 -1 1 0 0 0 1 -1 0 0 1 0 0 -1 1 0 0 0 1 0 0 -1 1 0 1 0 0 0 1 0 0 -1 1 0 1 0 0 0 1 0 0 0 1 0 1 0 0 0 1 0 1 0 0z"/>
   <path class="fil1" d="M2164 549l0 17 0 12c0,56 45,101 101,101 56,0 101,-45 101,-101 0,-56 -45,-101 -101,-101l0 0 -25 50 25 0c28,0 50,23 50,51 0,28 -22,50 -50,50 -28,0 -51,-22 -51,-50l0 -29 0 -9 0 -13 0 -50 0 -13 0 -30 0 -58 0 0 0 -1 0 -1 0 0 0 -1 0 -1 0 0 0 -1 0 0 0 -1 -1 -1 0 0 0 -1 0 0 0 -1 -1 -1 0 0 0 -1 0 0 -1 -1 0 0 0 -1 -1 0 0 -1 0 0 -1 -1 0 0 0 -1 -1 0 0 -1 -1 0 0 -1 0 0 -1 0 0 -1 -1 0 0 -1 -1 0 0 0 -1 -1 0 0 -1 0 0 -1 -1 0 0 0 -1 0 0 -1 -1 0 -1 0 0 0 -1 -1 0 0 -1 0 -1 0 0 0 -1 0 0 -1 -1 0 -1 0 0 0 -1 0 -1 0 0 0 -1 0 0 0 -1 0 -1 0 0 0 -1 0 -1 0 0 0 -1 1 -1 0 0 0 -1 0 0 0 -1 0 -1 1 0 0 -1 0 0 0 -1 1 0 0 -1 0 0 0 -1 1 0 0 -1 0 0 1 -1 0 0 0 -1 1 0 0 -1 1 0 0 -1 0 0 1 -1 0 0 1 0 0 -1 1 0 0 0 1 -1 0 0 1 0 0 -1 1 0 0 0 1 -1 0 0 1 0 0 0 1 -1 1 0 0 0 1 0 0 0 1 0 1 -1 0 0 1 0 0 0 1 0 1 0 0 0 1 0 1 0 0 0 51 0 7 0 30 0 13 0 50 0 13 0 9z"/>
   <path class="fil1" d="M2536 553l-88 0c20,-34 69,-34 88,0zm-44 -76c-68,0 -115,65 -97,129 12,42 50,71 94,73l3 0 51 0 25 0 -13 -25 0 0 -12 -26 -51 0c-19,0 -35,-10 -44,-25l120 0c14,0 25,-11 25,-25 0,-56 -45,-101 -101,-101z"/>
   <path class="fil1" d="M2618 578l0 76c0,13 12,25 26,25 14,0 25,-12 25,-25l0 -76c0,-28 22,-51 50,-51l0 0 26 0 25 -50 0 0 0 0 -51 0c-19,0 -37,5 -52,15 -29,17 -49,49 -49,86z"/>
   <path class="fil1" d="M2818 492c-29,17 -48,49 -48,86l0 76c0,13 11,25 25,25 14,0 26,-12 26,-25l0 -76c0,-28 22,-51 50,-51l0 0 26 0 25 -50 0 0 -1 0 -50 0c-19,0 -37,5 -53,15z"/>
   <path class="fil1" d="M2947 502l0 76c0,56 45,101 101,101l3 0 0 0 0 0 2 0 0 0 0 0 3 -1 0 0 2 0 0 0 3 0 0 0 2 0 0 0 3 -1 0 0 2 0 0 0 3 -1 0 0 2 0 0 0 3 -1 0 0 2 -1 0 0 2 -1 0 0 3 0 0 0 2 -1 0 0 2 -1 0 0 3 -1 0 0 2 -1 0 0 2 -1 0 0 2 -1 0 0 2 -2 0 0 1 0 0 43c-3,26 -24,46 -51,46l0 0 -25 0 0 0 -25 0 12 25 1 0 12 25 25 0c20,0 38,-5 53,-14 26,-17 45,-45 48,-77 0,-1 0,-2 0,-3 0,-2 0,-4 0,-7l0 -75c0,-1 0,-2 0,-3l0 -46 0 -1 0 0 0 0 0 0 0 0 0 0 0 0 0 -76c0,-14 -11,-25 -25,-25 -14,0 -25,11 -25,25l0 76c0,28 -23,50 -51,50 -28,0 -50,-22 -50,-50l0 0 0 -76c0,-14 -12,-25 -26,-25 -14,0 -25,11 -25,25z"/>
  </g>
  <path class="fil1" d="M1356 578c0,56 45,101 101,101 56,0 101,-45 101,-101 0,-55 -45,-101 -101,-101l0 0 -26 51 26 0c28,0 50,22 50,50 0,28 -22,51 -50,51 -28,0 -51,-23 -51,-51l0 -21 0 -17 0 -12 0 -51 0 -12 0 -24 0 -64 0 -1 0 -1 0 0 0 -1 0 0 0 -1 0 -1 0 0 0 -1 0 -1 -1 0 0 -1 0 0 0 -1 0 0 -1 -1 0 -1 0 0 0 -1 -1 0 0 -1 0 0 -1 -1 0 0 0 -1 -1 0 0 -1 0 0 -1 -1 0 0 -1 -1 0 0 0 0 -1 -1 0 0 -1 -1 0 0 -1 0 0 -1 -1 0 0 0 -1 -1 0 0 -1 0 0 -1 -1 0 0 0 -1 0 -1 -1 0 0 -1 0 0 0 -1 0 -1 -1 0 0 -1 0 0 0 -1 0 -1 0 0 0 -1 0 -1 0 0 0 -1 0 0 0 -1 0 -1 0 0 0 -1 0 -1 0 0 0 -1 0 -1 0 0 0 -1 1 0 0 -1 0 -1 0 0 0 -1 1 0 0 -1 0 0 0 -1 1 0 0 -1 0 0 1 -1 0 0 0 -1 1 0 0 -1 0 0 1 -1 0 0 1 -1 0 0 0 -1 1 0 0 0 1 -1 0 0 1 0 0 -1 1 0 0 0 1 -1 0 0 1 0 0 -1 1 0 0 0 1 0 1 -1 0 0 1 0 0 0 1 0 0 0 1 -1 1 0 0 0 1 0 1 0 0 0 1 0 0 0 1 0 1 0 50 0 14 0 24 0 12 0 51 0 12 0 17 0 8 0 13z"/>
  <path class="fil1" d="M1684 477c-56,0 -101,46 -101,101 0,56 45,101 101,101 56,0 101,-45 101,-101 0,-55 -45,-101 -101,-101zm0 51c28,0 51,22 51,50 0,28 -23,51 -51,51 -28,0 -50,-23 -50,-51 0,-28 22,-50 50,-50z"/>
  <path class="fil1" d="M1911 477c-55,0 -101,46 -101,101 0,56 46,101 101,101 56,0 101,-45 101,-101 0,-55 -45,-101 -101,-101zm0 51c28,0 51,22 51,50 0,28 -23,51 -51,51 -27,0 -50,-23 -50,-51 0,-28 23,-50 50,-50z"/>
  <path class="fil1" d="M2038 376l0 164 0 38c0,56 45,101 101,101l25 0 0 0 0 -1 -5 -9 -20 -41c-28,0 -51,-22 -51,-50l0 -38 0 -164 0 0 0 -1 0 -1 0 0 0 -1 0 -1 0 0 0 -1 0 0 -1 -1 0 -1 0 0 0 -1 0 0 -1 -1 0 -1 0 0 0 -1 -1 0 0 -1 0 0 0 -1 -1 0 0 -1 0 0 -1 -1 0 0 -1 -1 0 0 0 -1 -1 0 0 -1 -1 0 0 0 -1 -1 0 0 0 -1 -1 0 0 0 -1 -1 0 0 -1 0 -1 -1 0 0 -1 0 0 0 -1 -1 0 0 -1 0 0 0 -1 -1 -1 0 0 0 -1 0 0 0 -1 0 -1 -1 0 0 -1 0 0 0 -1 0 -1 0 0 0 -1 0 -1 0 0 0 -1 0 -1 0 0 0 -1 0 -1 0 0 1 -1 0 0 0 -1 0 -1 0 0 0 -1 1 0 0 -1 0 0 0 -1 1 -1 0 0 0 -1 0 0 1 -1 0 0 0 -1 1 0 0 -1 0 0 1 -1 0 0 1 0 0 -1 0 0 1 -1 0 0 1 -1 0 0 1 0 0 -1 1 0 0 0 1 -1 0 0 1 0 0 -1 1 0 0 0 1 0 0 -1 1 0 1 0 0 0 1 0 0 -1 1 0 1 0 0 0 1 0 0 0 1 0 1 0 0 0 1 0 1 0 0z"/>
  <path class="fil1" d="M2164 549l0 17 0 12c0,56 45,101 101,101 56,0 101,-45 101,-101 0,-56 -45,-101 -101,-101l0 0 -25 50 25 0c28,0 50,23 50,51 0,28 -22,50 -50,50 -28,0 -51,-22 -51,-50l0 -29 0 -9 0 -13 0 -50 0 -13 0 -30 0 -58 0 0 0 -1 0 -1 0 0 0 -1 0 -1 0 0 0 -1 0 0 0 -1 -1 -1 0 0 0 -1 0 0 0 -1 -1 -1 0 0 0 -1 0 0 -1 -1 0 0 0 -1 -1 0 0 -1 0 0 -1 -1 0 0 0 -1 -1 0 0 -1 -1 0 0 -1 0 0 -1 0 0 -1 -1 0 0 -1 -1 0 0 0 -1 -1 0 0 -1 0 0 -1 -1 0 0 0 -1 0 0 -1 -1 0 -1 0 0 0 -1 -1 0 0 -1 0 -1 0 0 0 -1 0 0 -1 -1 0 -1 0 0 0 -1 0 -1 0 0 0 -1 0 0 0 -1 0 -1 0 0 0 -1 0 -1 0 0 0 -1 1 -1 0 0 0 -1 0 0 0 -1 0 -1 1 0 0 -1 0 0 0 -1 1 0 0 -1 0 0 0 -1 1 0 0 -1 0 0 1 -1 0 0 0 -1 1 0 0 -1 1 0 0 -1 0 0 1 -1 0 0 1 0 0 -1 1 0 0 0 1 -1 0 0 1 0 0 -1 1 0 0 0 1 -1 0 0 1 0 0 0 1 -1 1 0 0 0 1 0 0 0 1 0 1 -1 0 0 1 0 0 0 1 0 1 0 0 0 1 0 1 0 0 0 51 0 7 0 30 0 13 0 50 0 13 0 9z"/>
  <path class="fil1" d="M2536 553l-88 0c20,-34 69,-34 88,0zm-44 -76c-68,0 -115,65 -97,129 12,42 50,71 94,73l3 0 51 0 25 0 -13 -25 0 0 -12 -26 -51 0c-19,0 -35,-10 -44,-25l120 0c14,0 25,-11 25,-25 0,-56 -45,-101 -101,-101z"/>
  <path class="fil1" d="M2618 578l0 76c0,13 12,25 26,25 14,0 25,-12 25,-25l0 -76c0,-28 22,-51 50,-51l0 0 26 0 25 -50 0 0 0 0 -51 0c-19,0 -37,5 -52,15 -29,17 -49,49 -49,86z"/>
  <path class="fil1" d="M2818 492c-29,17 -48,49 -48,86l0 76c0,13 11,25 25,25 14,0 26,-12 26,-25l0 -76c0,-28 22,-51 50,-51l0 0 26 0 25 -50 0 0 -1 0 -50 0c-19,0 -37,5 -53,15z"/>
  <path class="fil1" d="M2947 502l0 76c0,56 45,101 101,101l3 0 0 0 0 0 2 0 0 0 0 0 3 -1 0 0 2 0 0 0 3 0 0 0 2 0 0 0 3 -1 0 0 2 0 0 0 3 -1 0 0 2 0 0 0 3 -1 0 0 2 -1 0 0 2 -1 0 0 3 0 0 0 2 -1 0 0 2 -1 0 0 3 -1 0 0 2 -1 0 0 2 -1 0 0 2 -1 0 0 2 -2 0 0 1 0 0 43c-3,26 -24,46 -51,46l0 0 -25 0 0 0 -25 0 12 25 1 0 12 25 25 0c20,0 38,-5 53,-14 26,-17 45,-45 48,-77 0,-1 0,-2 0,-3 0,-2 0,-4 0,-7l0 -75c0,-1 0,-2 0,-3l0 -46 0 -1 0 0 0 0 0 0 0 0 0 0 0 0 0 -76c0,-14 -11,-25 -25,-25 -14,0 -25,11 -25,25l0 76c0,28 -23,50 -51,50 -28,0 -50,-22 -50,-50l0 0 0 -76c0,-14 -12,-25 -26,-25 -14,0 -25,11 -25,25z"/>
  <path class="fil1" d="M910 448c38,0 68,30 68,67l67 0c0,-74 -60,-134 -135,-134l-50 0 -17 0 -67 0 -16 0 -1 0 -17 0 -34 0 22 43 12 24 34 0 50 0 17 0 67 0z"/>
  <path class="fil1" d="M776 515c0,75 60,135 134,135 75,0 135,-60 135,-135 0,-74 -60,-134 -135,-134l-50 0 -17 0 -67 0 -16 0 -1 0 -17 0 -34 0 22 43 12 24 34 0 50 0 17 0 67 0c38,0 68,30 68,67 0,38 -30,68 -68,68 -37,0 -67,-30 -67,-68l0 -50 -17 0 -50 0 0 50z"/>
  <path class="fil1" d="M776 515c0,75 60,135 134,135 75,0 135,-60 135,-135l-67 0c0,38 -30,68 -68,68 -37,0 -67,-30 -67,-68l0 -50 -17 0 -50 0 0 50z"/>
 </g>
</svg>
