<?xml version="1.0" encoding="UTF-8"?>
<!DOCTYPE svg PUBLIC "-//W3C//DTD SVG 1.1//EN" "http://www.w3.org/Graphics/SVG/1.1/DTD/svg11.dtd">
<!-- Creator: CorelDRAW X7 -->
<svg xmlns="http://www.w3.org/2000/svg" xml:space="preserve" width="3.4137in" height="0.804866in" version="1.1" style="shape-rendering:geometricPrecision; text-rendering:geometricPrecision; image-rendering:optimizeQuality; fill-rule:evenodd; clip-rule:evenodd"
viewBox="0 0 2184 515"
 xmlns:xlink="http://www.w3.org/1999/xlink">
 <defs>
  <style type="text/css">
   <![CDATA[
    .fil0 {fill:#0098DA}
   ]]>
  </style>
 </defs>
 <g id="Layer_x0020_1">
  <metadata id="CorelCorpID_0Corel-Layer"/>
  <polygon class="fil0" points="118,131 176,131 176,97 176,36 176,29 176,29 176,28 176,27 176,26 176,26 176,25 175,24 175,23 175,23 175,22 175,21 175,21 174,20 174,19 174,19 174,18 173,17 173,17 173,16 172,15 172,15 172,14 171,14 171,13 170,12 170,12 170,11 169,11 169,10 168,10 168,9 167,9 167,8 166,8 166,7 165,7 165,6 164,6 164,5 163,5 162,5 162,4 161,4 161,4 160,3 159,3 159,3 158,2 157,2 157,2 156,2 155,1 155,1 154,1 153,1 152,1 152,0 151,0 150,0 150,0 149,0 148,0 147,0 147,0 146,0 145,0 144,0 144,0 143,0 142,0 141,0 141,1 140,1 139,1 139,1 138,1 137,2 136,2 136,2 135,2 134,3 134,3 133,3 133,4 132,4 131,4 131,5 130,5 130,5 129,6 128,6 128,7 127,7 127,8 126,8 126,9 125,9 125,10 124,10 124,11 123,11 123,12 123,12 122,13 122,14 121,14 121,15 121,15 120,16 120,17 120,17 120,18 119,19 119,19 119,20 119,21 118,21 118,22 118,23 118,23 118,24 118,25 117,26 117,26 117,27 117,28 117,29 117,29 117,60 117,131 "/>
  <path class="fil0" d="M103 131l0 -62c-25,17 -46,38 -62,62l62 0z"/>
  <path class="fil0" d="M0 263c0,0 0,1 0,1 0,129 105,234 234,234 130,0 235,-105 235,-235 0,-129 -105,-234 -235,-234 -15,0 -29,1 -43,4l0 60c14,-4 28,-6 43,-6 98,0 176,79 176,176 0,97 -78,176 -176,176 -97,0 -175,-79 -175,-176 0,-16 -14,-29 -30,-29 -16,0 -29,13 -29,29z"/>
  <g id="_756785296">
   <path class="fil0" d="M622 318c0,49 40,88 88,88 49,0 88,-39 88,-88 0,-49 -39,-88 -88,-88l0 0 -22 44 22 0c25,0 44,20 44,44 0,24 -19,44 -44,44 -24,0 -44,-20 -44,-44l0 -19 0 -14 0 -11 0 -44 0 -11 0 -20 0 -56 0 -1 0 -1 0 0 0 -1 0 0 0 -1 0 0 0 -1 0 0 0 -1 0 0 -1 -1 0 -1 0 0 0 -1 0 0 -1 -1 0 0 0 0 0 -1 -1 0 0 -1 0 0 0 -1 -1 0 0 -1 0 0 -1 0 0 -1 0 0 -1 -1 0 0 0 0 -1 -1 0 0 -1 0 0 -1 0 0 -1 0 0 -1 -1 0 0 0 -1 -1 0 0 -1 0 0 0 -1 -1 0 0 -1 0 0 0 -1 0 0 0 -1 -1 0 0 -1 0 0 0 -1 0 0 0 -1 0 0 0 -1 0 -1 0 0 0 -1 0 0 0 -1 0 0 0 -1 0 0 0 -1 0 -1 0 0 0 -1 0 0 0 -1 0 0 1 -1 0 0 0 -1 0 0 0 -1 0 0 1 -1 0 0 0 -1 0 0 1 0 0 -1 0 0 1 -1 0 0 0 -1 1 0 0 0 0 -1 1 0 0 -1 0 0 1 0 0 -1 1 0 0 0 0 -1 1 0 0 0 1 0 0 -1 1 0 0 0 1 0 0 -1 0 0 1 0 0 0 1 0 0 -1 1 0 1 0 0 0 1 0 0 0 1 0 0 0 1 -1 0 0 1 0 0 0 1 0 1 0 43 0 13 0 20 0 11 0 44 0 11 0 14 0 8 0 11z"/>
   <path class="fil0" d="M908 230c-48,0 -88,39 -88,88 0,49 40,88 88,88 49,0 88,-39 88,-88 0,-49 -39,-88 -88,-88zm0 44c24,0 44,20 44,44 0,24 -20,44 -44,44 -24,0 -44,-20 -44,-44 0,-24 20,-44 44,-44z"/>
   <path class="fil0" d="M1106 230c-49,0 -88,39 -88,88 0,49 39,88 88,88 49,0 88,-39 88,-88 0,-49 -39,-88 -88,-88zm0 44c24,0 44,20 44,44 0,24 -20,44 -44,44 -24,0 -44,-20 -44,-44 0,-24 20,-44 44,-44z"/>
   <path class="fil0" d="M1216 142l0 143 0 33c0,48 39,87 88,87l22 0 0 0 0 0 -5 -8 -17 -36c-24,0 -44,-19 -44,-43l0 -33 0 -143 0 0 0 -1 0 -1 0 0 0 -1 0 0 0 -1 -1 0 0 -1 0 0 0 -1 0 0 0 -1 0 0 -1 -1 0 0 0 -1 0 0 -1 -1 0 0 0 -1 0 0 -1 -1 0 0 0 -1 0 0 -1 0 0 -1 0 0 -1 -1 0 0 -1 0 0 -1 0 0 -1 -1 0 0 -1 0 0 -1 0 0 -1 0 0 0 -1 -1 0 0 -1 0 0 0 -1 -1 0 0 -1 0 0 0 -1 -1 0 0 -1 0 0 0 -1 0 0 0 -1 0 0 -1 -1 0 0 0 -1 0 0 0 -1 0 -1 0 0 0 -1 0 0 0 -1 0 0 0 -1 0 0 0 -1 0 -1 1 0 0 -1 0 0 0 -1 0 0 0 -1 0 0 1 -1 0 0 0 -1 0 0 1 -1 0 0 0 0 0 -1 1 0 0 -1 0 0 0 -1 1 0 0 0 0 -1 1 0 0 -1 1 0 0 0 0 -1 1 0 0 0 1 -1 0 0 0 0 1 -1 0 0 1 0 0 0 1 -1 0 0 1 0 0 0 1 -1 0 0 1 0 0 0 1 0 0 0 1 -1 0 0 1 0 0 0 1 0 0 0 1 0 0 0 1 0 1 0 0z"/>
   <path class="fil0" d="M1326 293l0 14 0 11c0,48 39,87 88,87 48,0 88,-39 88,-87 0,-49 -40,-88 -88,-88l0 0 -22 44 22 0c24,0 44,19 44,44 0,24 -20,43 -44,43 -25,0 -44,-19 -44,-43l0 -25 0 -8 0 -11 0 -44 0 -11 0 -27 0 -50 0 0 0 -1 0 -1 0 0 0 -1 0 0 -1 -1 0 0 0 -1 0 0 0 -1 0 0 0 -1 -1 0 0 -1 0 0 0 -1 0 0 -1 -1 0 0 0 -1 0 0 -1 -1 0 0 0 -1 -1 0 0 0 0 -1 -1 0 0 -1 0 0 -1 0 0 -1 0 0 -1 -1 0 0 -1 0 0 -1 0 0 -1 0 0 0 -1 -1 0 0 -1 0 0 0 -1 -1 0 0 -1 0 0 0 -1 -1 0 0 -1 0 0 0 -1 0 0 0 -1 0 0 -1 -1 0 0 0 -1 0 0 0 -1 0 -1 0 0 0 -1 0 0 0 -1 0 0 0 -1 0 -1 0 0 0 -1 1 0 0 -1 0 0 0 -1 0 0 0 -1 0 0 1 -1 0 0 0 -1 0 0 1 -1 0 0 0 -1 0 0 1 0 0 -1 0 0 0 -1 1 0 0 -1 0 0 1 0 0 -1 1 0 0 0 0 -1 1 0 0 0 1 -1 0 0 0 0 1 -1 0 0 1 0 0 -1 1 0 0 0 1 0 0 0 1 -1 0 0 1 0 0 0 1 0 0 0 1 -1 0 0 1 0 0 0 1 0 0 0 1 0 0 0 1 0 1 0 0 0 45 0 5 0 27 0 11 0 44 0 11 0 8z"/>
   <path class="fil0" d="M1650 296l-76 0c16,-30 59,-30 76,0zm-38 -66c-59,0 -101,56 -85,112 11,37 44,62 82,63l3 0 44 0 21 0 -10 -21 -1 -1 -10 -22 -44 0c-17,0 -31,-8 -38,-22l104 0c12,0 22,-9 22,-21 0,-49 -40,-88 -88,-88z"/>
   <path class="fil0" d="M1722 318l0 65c0,13 9,22 22,22 12,0 21,-9 21,-22l0 -65c0,-25 20,-44 44,-44l0 0 23 0 22 -44 -1 0 0 0 -44 0c-16,0 -32,4 -45,12 -26,16 -42,44 -42,76z"/>
   <path class="fil0" d="M1896 242c-26,16 -42,44 -42,76l0 65c0,13 9,22 22,22 12,0 22,-9 22,-22l0 -65c0,-25 19,-44 43,-44l1 0 22 0 22 -44 -1 0 0 0 -43 0c-17,0 -33,4 -46,12z"/>
   <path class="fil0" d="M2008 252l0 66c0,48 39,87 88,87l2 0 0 0 0 0 2 0 0 0 0 0 2 0 0 0 2 0 1 0 2 0 0 0 2 -1 0 0 2 0 0 0 2 0 0 0 2 -1 0 0 2 0 1 0 2 -1 0 0 2 0 0 -1 2 0 0 0 2 -1 0 0 2 -1 0 0 2 0 0 0 2 -1 0 0 2 -1 0 0 2 -1 0 0 1 -1 1 0 1 -1 0 0 1 0 0 37c-2,22 -21,40 -44,40l0 0 -22 0 0 0 -22 0 11 22 0 0 11 22 22 0c17,0 32,-5 46,-13 23,-14 39,-39 41,-67 0,-1 0,-2 0,-3 1,-1 1,-3 1,-5l0 -66c0,-1 0,-2 -1,-3l0 -39 0 -1 0 0 0 0 0 0 0 0 0 0 0 0 0 -66c0,-13 -9,-22 -21,-22 -13,0 -22,9 -22,22l0 66c0,24 -20,43 -44,43 -25,0 -44,-19 -44,-43l0 -1 0 -65c0,-13 -10,-22 -22,-22 -13,0 -22,9 -22,22z"/>
  </g>
  <path class="fil0" d="M622 318c0,49 40,88 88,88 49,0 88,-39 88,-88 0,-49 -39,-88 -88,-88l0 0 -22 44 22 0c25,0 44,20 44,44 0,24 -19,44 -44,44 -24,0 -44,-20 -44,-44l0 -19 0 -14 0 -11 0 -44 0 -11 0 -20 0 -56 0 -1 0 -1 0 0 0 -1 0 0 0 -1 0 0 0 -1 0 0 0 -1 0 0 -1 -1 0 -1 0 0 0 -1 0 0 -1 -1 0 0 0 0 0 -1 -1 0 0 -1 0 0 0 -1 -1 0 0 -1 0 0 -1 0 0 -1 0 0 -1 -1 0 0 0 0 -1 -1 0 0 -1 0 0 -1 0 0 -1 0 0 -1 -1 0 0 0 -1 -1 0 0 -1 0 0 0 -1 -1 0 0 -1 0 0 0 -1 0 0 0 -1 -1 0 0 -1 0 0 0 -1 0 0 0 -1 0 0 0 -1 0 -1 0 0 0 -1 0 0 0 -1 0 0 0 -1 0 0 0 -1 0 -1 0 0 0 -1 0 0 0 -1 0 0 1 -1 0 0 0 -1 0 0 0 -1 0 0 1 -1 0 0 0 -1 0 0 1 0 0 -1 0 0 1 -1 0 0 0 -1 1 0 0 0 0 -1 1 0 0 -1 0 0 1 0 0 -1 1 0 0 0 0 -1 1 0 0 0 1 0 0 -1 1 0 0 0 1 0 0 -1 0 0 1 0 0 0 1 0 0 -1 1 0 1 0 0 0 1 0 0 0 1 0 0 0 1 -1 0 0 1 0 0 0 1 0 1 0 43 0 13 0 20 0 11 0 44 0 11 0 14 0 8 0 11z"/>
  <path class="fil0" d="M908 230c-48,0 -88,39 -88,88 0,49 40,88 88,88 49,0 88,-39 88,-88 0,-49 -39,-88 -88,-88zm0 44c24,0 44,20 44,44 0,24 -20,44 -44,44 -24,0 -44,-20 -44,-44 0,-24 20,-44 44,-44z"/>
  <path class="fil0" d="M1106 230c-49,0 -88,39 -88,88 0,49 39,88 88,88 49,0 88,-39 88,-88 0,-49 -39,-88 -88,-88zm0 44c24,0 44,20 44,44 0,24 -20,44 -44,44 -24,0 -44,-20 -44,-44 0,-24 20,-44 44,-44z"/>
  <path class="fil0" d="M1216 142l0 143 0 33c0,48 39,87 88,87l22 0 0 0 0 0 -5 -8 -17 -36c-24,0 -44,-19 -44,-43l0 -33 0 -143 0 0 0 -1 0 -1 0 0 0 -1 0 0 0 -1 -1 0 0 -1 0 0 0 -1 0 0 0 -1 0 0 -1 -1 0 0 0 -1 0 0 -1 -1 0 0 0 -1 0 0 -1 -1 0 0 0 -1 0 0 -1 0 0 -1 0 0 -1 -1 0 0 -1 0 0 -1 0 0 -1 -1 0 0 -1 0 0 -1 0 0 -1 0 0 0 -1 -1 0 0 -1 0 0 0 -1 -1 0 0 -1 0 0 0 -1 -1 0 0 -1 0 0 0 -1 0 0 0 -1 0 0 -1 -1 0 0 0 -1 0 0 0 -1 0 -1 0 0 0 -1 0 0 0 -1 0 0 0 -1 0 0 0 -1 0 -1 1 0 0 -1 0 0 0 -1 0 0 0 -1 0 0 1 -1 0 0 0 -1 0 0 1 -1 0 0 0 0 0 -1 1 0 0 -1 0 0 0 -1 1 0 0 0 0 -1 1 0 0 -1 1 0 0 0 0 -1 1 0 0 0 1 -1 0 0 0 0 1 -1 0 0 1 0 0 0 1 -1 0 0 1 0 0 0 1 -1 0 0 1 0 0 0 1 0 0 0 1 -1 0 0 1 0 0 0 1 0 0 0 1 0 0 0 1 0 1 0 0z"/>
  <path class="fil0" d="M1326 293l0 14 0 11c0,48 39,87 88,87 48,0 88,-39 88,-87 0,-49 -40,-88 -88,-88l0 0 -22 44 22 0c24,0 44,19 44,44 0,24 -20,43 -44,43 -25,0 -44,-19 -44,-43l0 -25 0 -8 0 -11 0 -44 0 -11 0 -27 0 -50 0 0 0 -1 0 -1 0 0 0 -1 0 0 -1 -1 0 0 0 -1 0 0 0 -1 0 0 0 -1 -1 0 0 -1 0 0 0 -1 0 0 -1 -1 0 0 0 -1 0 0 -1 -1 0 0 0 -1 -1 0 0 0 0 -1 -1 0 0 -1 0 0 -1 0 0 -1 0 0 -1 -1 0 0 -1 0 0 -1 0 0 -1 0 0 0 -1 -1 0 0 -1 0 0 0 -1 -1 0 0 -1 0 0 0 -1 -1 0 0 -1 0 0 0 -1 0 0 0 -1 0 0 -1 -1 0 0 0 -1 0 0 0 -1 0 -1 0 0 0 -1 0 0 0 -1 0 0 0 -1 0 -1 0 0 0 -1 1 0 0 -1 0 0 0 -1 0 0 0 -1 0 0 1 -1 0 0 0 -1 0 0 1 -1 0 0 0 -1 0 0 1 0 0 -1 0 0 0 -1 1 0 0 -1 0 0 1 0 0 -1 1 0 0 0 0 -1 1 0 0 0 1 -1 0 0 0 0 1 -1 0 0 1 0 0 -1 1 0 0 0 1 0 0 0 1 -1 0 0 1 0 0 0 1 0 0 0 1 -1 0 0 1 0 0 0 1 0 0 0 1 0 0 0 1 0 1 0 0 0 45 0 5 0 27 0 11 0 44 0 11 0 8z"/>
  <path class="fil0" d="M1650 296l-76 0c16,-30 59,-30 76,0zm-38 -66c-59,0 -101,56 -85,112 11,37 44,62 82,63l3 0 44 0 21 0 -10 -21 -1 -1 -10 -22 -44 0c-17,0 -31,-8 -38,-22l104 0c12,0 22,-9 22,-21 0,-49 -40,-88 -88,-88z"/>
  <path class="fil0" d="M1722 318l0 65c0,13 9,22 22,22 12,0 21,-9 21,-22l0 -65c0,-25 20,-44 44,-44l0 0 23 0 22 -44 -1 0 0 0 -44 0c-16,0 -32,4 -45,12 -26,16 -42,44 -42,76z"/>
  <path class="fil0" d="M1896 242c-26,16 -42,44 -42,76l0 65c0,13 9,22 22,22 12,0 22,-9 22,-22l0 -65c0,-25 19,-44 43,-44l1 0 22 0 22 -44 -1 0 0 0 -43 0c-17,0 -33,4 -46,12z"/>
  <path class="fil0" d="M2008 252l0 66c0,48 39,87 88,87l2 0 0 0 0 0 2 0 0 0 0 0 2 0 0 0 2 0 1 0 2 0 0 0 2 -1 0 0 2 0 0 0 2 0 0 0 2 -1 0 0 2 0 1 0 2 -1 0 0 2 0 0 -1 2 0 0 0 2 -1 0 0 2 -1 0 0 2 0 0 0 2 -1 0 0 2 -1 0 0 2 -1 0 0 1 -1 1 0 1 -1 0 0 1 0 0 37c-2,22 -21,40 -44,40l0 0 -22 0 0 0 -22 0 11 22 0 0 11 22 22 0c17,0 32,-5 46,-13 23,-14 39,-39 41,-67 0,-1 0,-2 0,-3 1,-1 1,-3 1,-5l0 -66c0,-1 0,-2 -1,-3l0 -39 0 -1 0 0 0 0 0 0 0 0 0 0 0 0 0 -66c0,-13 -9,-22 -21,-22 -13,0 -22,9 -22,22l0 66c0,24 -20,43 -44,43 -25,0 -44,-19 -44,-43l0 -1 0 -65c0,-13 -10,-22 -22,-22 -13,0 -22,9 -22,22z"/>
  <path class="fil0" d="M234 205c33,0 59,26 59,58l59 0c0,-65 -53,-117 -118,-117l-43 0 -15 0 -59 0 -14 0 0 0 -15 0 -29 0 19 38 10 21 29 0 44 0 15 0 58 0z"/>
  <path class="fil0" d="M117 263c0,65 53,117 117,117 65,0 118,-52 118,-117 0,-65 -53,-117 -118,-117l-43 0 -15 0 -59 0 -14 0 0 0 -15 0 -29 0 19 38 10 21 29 0 44 0 15 0 58 0c33,0 59,26 59,58 0,33 -26,59 -59,59 -32,0 -58,-26 -58,-59l0 -44 -15 0 -44 0 0 44z"/>
  <path class="fil0" d="M117 263c0,65 53,117 117,117 65,0 118,-52 118,-117l-59 0c0,33 -26,59 -59,59 -32,0 -58,-26 -58,-59l0 -44 -15 0 -44 0 0 44z"/>
 </g>
</svg>
