<?xml version="1.0" encoding="utf-8"?>
<!-- Generator: Adobe Illustrator 15.0.0, SVG Export Plug-In . SVG Version: 6.00 Build 0)  -->
<!DOCTYPE svg PUBLIC "-//W3C//DTD SVG 1.1//EN" "http://www.w3.org/Graphics/SVG/1.1/DTD/svg11.dtd">
<svg version="1.1" id="Capa_1" xmlns="http://www.w3.org/2000/svg" xmlns:xlink="http://www.w3.org/1999/xlink" x="0px" y="0px"
	 width="23.412px" height="23.303px" viewBox="0 0 23.412 23.303" enable-background="new 0 0 23.412 23.303" xml:space="preserve">
<g>
	<path d="M6.23,15.152H1.526C0.689,15.152,0,15.922,0,16.869v4.719c0,0.943,0.689,1.715,1.526,1.715H6.23
		c0.837,0,1.524-0.771,1.524-1.715v-4.719C7.754,15.922,7.068,15.152,6.23,15.152z"/>
	<circle cx="3.875" cy="11.742" r="2.932"/>
	<path d="M21.886,15.152h-4.703c-0.836,0-1.523,0.771-1.523,1.719v4.719c0,0.943,0.688,1.715,1.523,1.715h4.703
		c0.84,0,1.525-0.771,1.525-1.715V16.87C23.412,15.922,22.726,15.152,21.886,15.152z"/>
	<path d="M19.533,14.674c1.624,0,2.934-1.312,2.934-2.932c0-1.62-1.31-2.933-2.934-2.933c-1.618,0-2.929,1.312-2.929,2.933
		C16.604,13.362,17.915,14.674,19.533,14.674z"/>
	<polygon points="12.365,17.798 9.287,17.798 9.287,19.708 12.365,19.708 12.365,21.021 14.634,18.752 12.365,16.484 	"/>
	<g>
		<path d="M13.646,2.617c-0.383-0.221-0.852-0.33-1.402-0.33c-0.369,0-0.735,0.078-1.099,0.234c-0.363,0.155-0.688,0.39-0.972,0.701
			c-0.284,0.312-0.515,0.702-0.69,1.17c-0.176,0.469-0.264,1.019-0.264,1.65c0,0.48,0.066,0.924,0.198,1.332
			c0.132,0.407,0.321,0.762,0.569,1.062c0.248,0.301,0.553,0.534,0.912,0.702c0.36,0.168,0.772,0.252,1.236,0.252
			c0.103,0,0.222-0.006,0.353-0.018c0.133-0.012,0.262-0.026,0.385-0.042c0.125-0.016,0.238-0.038,0.342-0.066
			c0.104-0.027,0.18-0.058,0.229-0.09c0.016-0.096,0.025-0.216,0.029-0.359c0.004-0.145,0.006-0.305,0.006-0.48
			c0-0.648-0.012-1.126-0.035-1.435c-0.023-0.307-0.041-0.518-0.049-0.629c0.08,0.016,0.188,0.029,0.318,0.041
			c0.133,0.012,0.322,0.019,0.57,0.019c0.287,0,0.502-0.007,0.643-0.019c0.139-0.012,0.25-0.025,0.33-0.041
			c-0.018,0.063-0.031,0.168-0.043,0.312s-0.021,0.31-0.029,0.498c-0.008,0.188-0.014,0.389-0.018,0.6
			c-0.006,0.213-0.006,0.414-0.006,0.606v0.396c0,0.2,0,0.387,0.006,0.559c0.004,0.172,0.014,0.294,0.029,0.366
			c-0.527,0.151-1.062,0.271-1.602,0.359c-0.541,0.088-1.074,0.132-1.602,0.132c-0.688,0-1.322-0.09-1.902-0.27
			s-1.08-0.444-1.5-0.792C8.168,8.688,7.84,8.268,7.605,7.776C7.369,7.285,7.25,6.73,7.25,6.115c0-0.76,0.126-1.426,0.378-1.998
			s0.6-1.049,1.044-1.428c0.444-0.381,0.97-0.666,1.578-0.858s1.265-0.288,1.967-0.288c0.607,0,1.135,0.062,1.578,0.186
			c0.445,0.125,0.883,0.303,1.314,0.535c-0.064,0.207-0.127,0.412-0.186,0.611c-0.061,0.2-0.111,0.404-0.15,0.611h-0.168
			C14.351,3.127,14.03,2.837,13.646,2.617z"/>
	</g>
</g>
</svg>
