<?xml version="1.0" encoding="utf-8"?>
<!-- Generator: Adobe Illustrator 15.0.0, SVG Export Plug-In . SVG Version: 6.00 Build 0)  -->
<!DOCTYPE svg PUBLIC "-//W3C//DTD SVG 1.1//EN" "http://www.w3.org/Graphics/SVG/1.1/DTD/svg11.dtd">
<svg version="1.1" id="Layer_1" xmlns="http://www.w3.org/2000/svg" xmlns:xlink="http://www.w3.org/1999/xlink" x="0px" y="0px"
	 width="36px" height="36px" viewBox="0 0 36 36" enable-background="new 0 0 36 36" xml:space="preserve">
<path fill-rule="evenodd" clip-rule="evenodd" fill="#FFFFFF" d="M23.24,24.052c0.771,0.035,1.336-0.894,1.896-0.583
	c-0.529,0.2-0.448,1.001-0.729,1.457C24.142,24.512,23.295,24.676,23.24,24.052 M30.092,36.295c1.659,0.037,3.396-1.159,3.209-2.769
	c-0.145-1.233-2.292-1.591-1.75-3.207c-0.32-0.079-0.208,0.28-0.438,0.29c0.236-1.292-0.966-3.047-1.604-4.371
	c0.013-0.523,0.644-0.426,0.875-0.729c-0.918-1.889-2.599-1.75-2.625-4.374c0-0.302-0.277-1.372-1.166-1.602
	c-1.905,0.698-2.887,2.217-4.664,2.77c-0.335,0.104-1.142,0.242-1.603,0.145c-1.077-0.224-3.29-2.806-4.521-4.08
	c-4.1-4.229-7.854-10.523-11.078-14.723C3.738,2.35,3.379,0.691,1.958,0C1.54,0.551,0.502,0.486,0.065,1.02
	c-0.037,0.363-0.33,1.336,0.726,1.604c4.113,5.314,7.084,11.771,12.101,16.18c0.88,1.988,2.751,2.983,4.227,4.374
	c-2.271,1.386-4.802-0.838-6.268-1.166c-0.796,0.47-1.409,1.116-1.603,2.186c-0.073,0.606,0.838,0.231,0.873,0.729
	c-0.556,0.869-1.17,0.924-1.018,2.332c2.83,1.487,6.241,1.933,9.475,3.062c3.643,1.27,7.027,3.76,10.641,5.101
	C29.569,35.652,29.703,36.104,30.092,36.295"/>
</svg>
