<?xml version="1.0" encoding="utf-8"?>
<!-- Generator: Adobe Illustrator 16.0.4, SVG Export Plug-In . SVG Version: 6.00 Build 0)  -->
<!DOCTYPE svg PUBLIC "-//W3C//DTD SVG 1.1//EN" "http://www.w3.org/Graphics/SVG/1.1/DTD/svg11.dtd">
<svg version="1.1" id="Layer_1" xmlns="http://www.w3.org/2000/svg" xmlns:xlink="http://www.w3.org/1999/xlink" x="0px" y="0px"
	 width="112px" height="112px" viewBox="0 0 112 112" enable-background="new 0 0 112 112" xml:space="preserve">
<path d="M69.697,72.334C69.879,73.1,70,73.873,70,74.666c0,2.479,0,2.189,0,4.668C70,89.643,54.329,98,35,98S0,89.643,0,79.334
	c0-2.479,0-2.189,0-4.668c0-0.793,0.121-1.566,0.303-2.332C2.459,81.541,17.154,88.666,35,88.666S67.541,81.541,69.697,72.334z
	 M35,102.666c-17.846,0-32.541-7.125-34.697-16.332C0.121,87.1,0,87.873,0,88.666c0,2.479,0,2.189,0,4.668
	C0,103.643,15.671,112,35,112s35-8.357,35-18.666c0-2.479,0-2.189,0-4.668c0-0.793-0.121-1.566-0.303-2.332
	C67.541,95.541,52.846,102.666,35,102.666z M35,46.667c-19.329,0-35,8.358-35,18.667C0,75.643,15.671,84,35,84s35-8.357,35-18.666
	C70,55.024,54.329,46.667,35,46.667z M77,84c-0.789,0-1.559-0.033-2.334-0.057c0,4.994,0,9.062,0,9.328
	c0.775,0.023,1.545,0.062,2.334,0.062c19.329,0,35-8.357,35-18.668c0-2.479,0-2.188,0-4.666c0-0.793-0.121-1.568-0.303-2.334
	C109.541,76.874,94.846,84,77,84z M77,37.333c19.33,0,35-8.357,35-18.667C112,8.357,96.33,0,77,0S42,8.357,42,18.667
	C42,28.976,57.67,37.333,77,37.333z M77,42c-17.846,0-32.541-7.126-34.697-16.333C42.121,26.432,42,27.207,42,28
	c0,2.478,0,2.188,0,4.667c0,3.962,2.333,7.63,6.281,10.654c6.822,1.386,12.754,3.798,17.248,6.967
	c3.598,0.667,7.447,1.045,11.471,1.045c19.329,0,35-8.358,35-18.667c0-2.478,0-2.188,0-4.667c0-0.793-0.121-1.568-0.303-2.333
	C109.541,34.874,94.846,42,77,42z M77,56c-1.965,0-3.878-0.098-5.754-0.266c2.17,2.898,3.402,6.114,3.416,9.54
	c0.773,0.022,1.549,0.062,2.338,0.062c19.329,0,35-8.358,35-18.667c0-2.478,0-2.188,0-4.667c0-0.793-0.121-1.568-0.303-2.333
	C109.541,48.874,94.846,56,77,56z M77,70c-0.789,0-1.559-0.033-2.334-0.057c0,2.596,0,5.945,0,9.328
	c0.775,0.023,1.545,0.062,2.334,0.062c19.329,0,35-8.357,35-18.668c0-2.479,0-2.188,0-4.666c0-0.793-0.121-1.568-0.303-2.333
	C109.541,62.874,94.846,70,77,70z"/>
</svg>
