<?xml version="1.0" encoding="utf-8"?>
<!-- Generator: Adobe Illustrator 16.0.0, SVG Export Plug-In . SVG Version: 6.00 Build 0)  -->
<!DOCTYPE svg PUBLIC "-//W3C//DTD SVG 1.1//EN" "http://www.w3.org/Graphics/SVG/1.1/DTD/svg11.dtd">
<svg version="1.1" xmlns="http://www.w3.org/2000/svg" xmlns:xlink="http://www.w3.org/1999/xlink" x="0px" y="0px" width="96px"
	 height="96px" viewBox="0 0 96 96" enable-background="new 0 0 96 96" xml:space="preserve">
<g id="Layer_1">
	<g>
		<g>
			<g>
				<path d="M37.334,27.092c0.963,0,1.911-0.02,2.848-0.061c0.494-6.635,10.935-10.545,22.662-11.504V10.16
					c0-5.141-11.423-9.303-25.51-9.303S11.828,5.02,11.828,10.16v7.631C11.828,22.928,23.247,27.092,37.334,27.092z"/>
			</g>
		</g>
		<path d="M11.835,22.928l-0.007,8.496c3.545-0.814,7.429-1.293,11.323-1.459C16.829,28.414,12.426,25.859,11.835,22.928z"/>
		<g>
			<g>
				<path d="M69.242,18.875c-14.086,0-25.507,4.164-25.507,9.301v4.039c3.12,0.945,5.854,2.186,7.925,3.738l0.152,0.111
					c2.476,1.904,3.964,4.268,3.964,7.115v0.527c3.909,0.887,8.521,1.4,13.466,1.4c14.088,0,25.508-4.16,25.508-9.299v-7.633
					C94.75,23.039,83.33,18.875,69.242,18.875z"/>
			</g>
		</g>
		<path d="M94.755,40.943c-0.971,4.816-12.063,8.611-25.513,8.611c-4.946,0-9.56-0.514-13.466-1.402v13.295
			c3.909,0.887,8.521,1.402,13.466,1.402c14.088,0,25.508-4.164,25.508-9.303C94.75,53.547,94.801,41.174,94.755,40.943z"/>
		<path d="M94.745,58.9c-0.971,4.813-12.053,8.609-25.503,8.609c-4.946,0-9.56-0.516-13.466-1.404v13.299
			c3.909,0.887,8.521,1.4,13.466,1.4c14.088,0,25.508-4.162,25.508-9.301C94.75,71.504,94.791,59.125,94.745,58.9z"/>
		<g>
			<g>
				<path d="M26.749,33.213c-14.088,0-25.509,4.162-25.509,9.299v7.635c0,5.139,11.421,9.297,25.509,9.297
					c14.087,0,25.506-4.158,25.506-9.297v-7.635C52.255,37.375,40.836,33.213,26.749,33.213z"/>
			</g>
		</g>
		<g>
			<g>
				<path d="M26.749,63.893c-13.45,0-24.531-3.797-25.5-8.611C1.203,55.51,1.24,67.885,1.24,67.885
					c0,5.139,11.421,9.303,25.509,9.303c14.087,0,25.506-4.164,25.506-9.303c0,0,0.042-12.375-0.005-12.604
					C51.279,60.096,40.199,63.893,26.749,63.893z"/>
			</g>
		</g>
		<g>
			<g>
				<path d="M26.749,81.848c-13.45,0-24.543-3.799-25.512-8.611L1.24,85.842c0,5.139,11.421,9.301,25.509,9.301
					c14.087,0,25.506-4.162,25.506-9.301c0,0,0.032-12.379-0.015-12.605C51.27,78.049,40.199,81.848,26.749,81.848z"/>
			</g>
		</g>
	</g>
</g>
<g id="Layer_2">
</g>
</svg>
