<?xml version="1.0" encoding="utf-8"?>
<!-- Generator: Adobe Illustrator 21.0.0, SVG Export Plug-In . SVG Version: 6.00 Build 0)  -->
<svg version="1.1" id="Layer_1" xmlns="http://www.w3.org/2000/svg" xmlns:xlink="http://www.w3.org/1999/xlink" x="0px" y="0px"
	 viewBox="0 0 245.8 58" style="enable-background:new 0 0 245.8 58;" xml:space="preserve">
<style type="text/css">
	.st0{fill:#FFFFFF;}
</style>
<path class="st0" d="M102.2,25.9c-5.4,0-9.9,4.4-9.9,9.9s4.5,9.9,9.9,9.9c5.5,0,9.9-4.4,9.9-9.9S107.7,25.9,102.2,25.9z M102.2,30.8
	c2.7,0,5,2.3,5,5s-2.3,5-5,5s-5-2.3-5-5S99.5,30.8,102.2,30.8z"/>
<path class="st0" d="M124.5,25.9c-5.5,0-9.9,4.4-9.9,9.9s4.4,9.9,9.9,9.9s9.9-4.4,9.9-9.9S130,25.9,124.5,25.9z M124.5,30.8
	c2.7,0,5,2.3,5,5s-2.3,5-5,5s-5-2.3-5-5S121.8,30.8,124.5,30.8z"/>
<path class="st0" d="M185.7,33.3h-8.6C178.9,29.9,183.8,29.9,185.7,33.3z M181.4,25.9c-6.6,0-11.4,6.3-9.6,12.6c1.2,4.2,5,7,9.2,7.1
	h7.7l-2.4-5h-5c-1.9,0-3.5-0.9-4.3-2.5h11.7c1.4,0,2.5-1,2.5-2.4C191.3,30.3,186.8,25.9,181.4,25.9z"/>
<path class="st0" d="M193.8,35.8v7.3c0,1.5,1,2.5,2.5,2.5c1.4,0,2.4-1,2.4-2.5v-7.3c0-2.8,2.3-5,5-5l0,0h2.6l2.5-5h-0.1l0,0h-5
	c-1.8,0-3.6,0.5-5.1,1.4C195.6,29,193.8,32.2,193.8,35.8z"/>
<path class="st0" d="M213.4,27.2c-2.9,1.8-4.7,5-4.7,8.6v7.3c0,1.5,1,2.5,2.5,2.5c1.4,0,2.5-1,2.5-2.5v-7.3c0-2.8,2.1-5,4.8-5h0.1
	h2.5l2.5-5h-0.1l0,0h-4.8C216.6,25.9,214.8,26.3,213.4,27.2z"/>
<path class="st0" d="M11.6,14.7v-7c-2.8,1.9-5.2,4.3-7,7H11.6z"/>
<path class="st0" d="M0,29.6v0.1C0,44.2,11.8,56,26.3,56C41,56,52.8,44.2,52.8,29.6C52.8,15.1,41,3.3,26.3,3.3
	c-1.7,0-3.3,0.1-4.8,0.5v6.8c1.6-0.5,3.2-0.7,4.8-0.7c11,0,19.8,8.9,19.8,19.8s-8.8,19.8-19.8,19.8c-10.9,0-19.7-8.9-19.7-19.8
	c0-1.8-1.6-3.3-3.4-3.3S0,27.8,0,29.6z"/>
<path class="st0" d="M13.2,29.6c0,7.3,6,13.2,13.2,13.2c7.3,0,13.3-5.9,13.3-13.2s-6-13.2-13.3-13.2H6.6L9.9,23h16.4
	c3.7,0,6.6,2.9,6.6,6.5c0,3.7-2.9,6.6-6.6,6.6c-3.6,0-6.5-2.9-6.5-6.6v-5h-6.6C13.2,24.5,13.2,29.6,13.2,29.6z"/>
<path class="st0" d="M19.8,3.2c0-1.8-1.5-3.2-3.3-3.2s-3.3,1.5-3.3,3.2v11.5h6.6C19.8,14.7,19.8,3.3,19.8,3.2z"/>
<path class="st0" d="M79.9,25.9l-2.5,5h2.5c2.8,0,5,2.3,5,5s-2.1,5-5,5c-2.7,0-5-2.3-5-5L75,16l0,0c0-1.3-1.1-2.4-2.5-2.4
	S70,14.7,70,16l0,0l0,0l0,0l0,0v19.7c0,5.5,4.5,9.9,9.9,9.9c5.5,0,9.9-4.4,9.9-9.9S85.4,25.9,79.9,25.9z"/>
<path class="st0" d="M146.7,40.6c-2.7,0-5-2.1-5-4.8V16l0,0c0-1.3-1.1-2.4-2.5-2.4s-2.5,1.1-2.5,2.4l0,0l0,0l0,0l0,0v19.7
	c0,5.4,4.4,9.8,9.9,9.8h2.5L146.7,40.6z"/>
<path class="st0" d="M159.1,25.9l-2.5,5h2.5c2.7,0,5,2.1,5,5c0,2.7-2.3,4.8-5,4.8c-2.8,0-5-2.1-5-4.8V16.1l0,0
	c0-1.3-1.1-2.4-2.5-2.4s-2.5,1.1-2.5,2.4l0,0l0,0l0,0l0,0v19.7c0,5.4,4.4,9.8,9.9,9.8c5.4,0,9.9-4.4,9.9-9.8
	C169,30.3,164.5,25.9,159.1,25.9z"/>
<path class="st0" d="M243.3,25.9c-1.5,0-2.5,1-2.5,2.5v7.4c0,2.7-2.3,4.8-5,4.8c-2.8,0-5-2.1-5-4.8v-7.4c0-1.5-1.1-2.5-2.5-2.5
	c-1.5,0-2.5,1-2.5,2.5v7.4c0,2.6,1.1,5,2.8,6.8c0.1,0.1,0.1,0.1,0.2,0.2l0.1,0.1c1.6,1.6,4.1,2.7,7,2.7c1.8,0,3.4-0.4,4.8-1.1v4.1
	c-0.2,2.5-2.4,4.5-5,4.5h-5l2.5,5h2.5c1.9,0,3.6-0.6,5.2-1.5c2.6-1.6,4.4-4.4,4.6-7.5c0-0.1,0-20.6,0-20.6
	C245.7,26.9,244.6,25.9,243.3,25.9z"/>
</svg>
