<?xml version="1.0" encoding="UTF-8"?>
<!DOCTYPE svg PUBLIC "-//W3C//DTD SVG 1.1//EN" "http://www.w3.org/Graphics/SVG/1.1/DTD/svg11.dtd">
<!-- Creator: CorelDRAW X7 -->
<svg xmlns="http://www.w3.org/2000/svg" xml:space="preserve" width="2.44075in" height="0.617118in" version="1.1" style="shape-rendering:geometricPrecision; text-rendering:geometricPrecision; image-rendering:optimizeQuality; fill-rule:evenodd; clip-rule:evenodd"
viewBox="0 0 1757 444"
 xmlns:xlink="http://www.w3.org/1999/xlink">
 <defs>
  <style type="text/css">
   <![CDATA[
    .fil0 {fill:#0098DA}
   ]]>
  </style>
 </defs>
 <g id="Layer_x0020_1">
  <metadata id="CorelCorpID_0Corel-Layer"/>
  <g id="_930611936">
   <path class="fil0" d="M0 223c0,54 44,99 99,99 55,0 99,-45 99,-99 0,-55 -44,-99 -99,-99l0 0 -25 49 25 0c27,0 49,22 49,50 0,27 -22,49 -49,49 -27,0 -50,-22 -50,-49l0 -21 0 -16 0 -13 0 -49 0 -13 0 -23 0 -63 0 0 0 -1 0 -1 0 0 0 -1 0 -1 0 0 0 -1 0 0 0 -1 0 -1 -1 0 0 -1 0 0 0 -1 0 0 -1 -1 0 0 0 -1 -1 -1 0 0 0 -1 0 0 -1 -1 0 0 0 -1 -1 0 0 0 -1 -1 0 0 0 -1 -1 0 0 -1 -1 0 0 0 -1 -1 0 0 0 -1 -1 0 0 0 -1 -1 0 0 -1 0 0 -1 -1 0 -1 0 0 0 -1 -1 0 0 -1 0 0 0 -1 0 0 -1 -1 0 -1 0 0 0 -1 0 0 0 -1 0 -1 0 0 0 -1 0 -1 0 0 -1 -1 1 -1 0 0 0 -1 0 0 0 -1 0 -1 0 0 0 -1 0 0 0 -1 0 -1 1 0 0 -1 0 0 0 -1 0 0 1 -1 0 -1 0 0 0 -1 1 0 0 -1 0 0 1 -1 0 0 0 -1 1 0 0 0 1 -1 0 0 0 -1 1 0 0 -1 1 0 0 0 1 -1 0 0 0 0 1 -1 0 0 1 0 0 -1 1 0 0 0 1 -1 1 0 0 0 1 0 0 0 1 -1 0 0 1 0 0 0 1 0 1 0 0 -1 1 0 0 0 1 0 1 0 0 0 1 0 1 0 0 0 49 0 14 0 23 0 13 0 49 0 13 0 16 0 8 0 13z"/>
   <path class="fil0" d="M322 124c-55,0 -99,44 -99,99 0,54 44,99 99,99 54,0 99,-45 99,-99 0,-55 -45,-99 -99,-99zm0 49c27,0 49,22 49,50 0,27 -22,49 -49,49 -28,0 -50,-22 -50,-49 0,-28 22,-50 50,-50z"/>
   <path class="fil0" d="M544 124c-54,0 -99,44 -99,99 0,54 45,99 99,99 55,0 99,-45 99,-99 0,-55 -44,-99 -99,-99zm0 49c28,0 50,22 50,50 0,27 -22,49 -50,49 -27,0 -49,-22 -49,-49 0,-28 22,-50 49,-50z"/>
   <path class="fil0" d="M668 25l0 160 0 37c0,55 44,99 99,99l24 0 1 0 -1 0 -4 -10 -20 -39c-27,0 -50,-23 -50,-50l0 -37 0 -160 0 -1 0 -1 0 0 0 -1 0 0 0 -1 0 -1 0 0 0 -1 0 0 -1 -1 0 -1 0 0 0 -1 0 0 -1 -1 0 0 0 -1 0 -1 -1 0 0 -1 0 0 0 -1 -1 0 0 -1 -1 0 0 -1 0 0 -1 0 0 -1 0 0 -1 -1 0 0 -1 -1 0 0 -1 0 0 -1 -1 0 0 0 -1 -1 0 0 -1 0 0 -1 -1 0 0 0 -1 -1 0 0 -1 0 0 0 -1 0 0 -1 -1 0 -1 0 0 0 -1 0 0 0 -1 -1 -1 0 0 0 -1 0 0 0 -1 0 -1 0 0 0 -1 0 -1 0 0 0 -1 0 0 0 -1 0 -1 0 0 1 -1 0 -1 0 0 0 -1 0 0 0 -1 1 0 0 -1 0 -1 0 0 0 -1 1 0 0 -1 0 0 1 -1 0 0 0 -1 1 0 0 -1 0 0 1 -1 0 0 0 0 1 -1 0 0 1 -1 0 0 1 0 0 -1 0 0 1 -1 0 0 1 0 0 0 1 -1 0 0 1 0 0 -1 1 0 1 0 0 0 1 -1 0 0 1 0 0 0 1 0 1 0 0 -1 1 0 0 0 1 0 1 0 0 0 1 0 0 0 1 0 1z"/>
   <path class="fil0" d="M792 194l0 17 0 11c0,55 44,99 99,99 54,0 99,-44 99,-99 0,-55 -45,-99 -99,-99l-1 0 -24 50 25 0c27,0 49,22 49,49 0,27 -22,50 -49,50 -28,0 -50,-23 -50,-50l0 -28 0 -9 0 -12 0 -50 0 -12 0 -30 0 -56 0 -1 0 -1 0 0 0 -1 0 0 0 -1 0 -1 0 0 -1 -1 0 0 0 -1 0 -1 0 0 0 -1 -1 0 0 -1 0 0 0 -1 -1 -1 0 0 0 -1 0 0 -1 -1 0 0 0 -1 -1 0 0 -1 -1 0 0 0 0 -1 -1 0 0 -1 -1 0 0 -1 0 0 -1 0 0 -1 -1 0 0 0 -1 -1 0 0 -1 0 0 -1 -1 0 0 0 -1 -1 0 0 -1 0 -1 0 0 0 -1 -1 0 0 -1 0 0 0 -1 0 -1 0 0 -1 -1 0 0 0 -1 0 -1 0 0 0 -1 0 -1 0 0 0 -1 0 -1 0 0 0 -1 0 0 0 -1 0 -1 1 0 0 -1 0 0 0 -1 0 -1 0 0 1 -1 0 0 0 -1 0 0 0 -1 1 0 0 -1 0 0 1 -1 0 0 0 -1 1 0 0 -1 0 0 1 -1 0 0 0 -1 1 0 0 -1 1 0 0 0 1 -1 0 0 0 0 1 -1 0 0 1 0 0 -1 1 0 0 0 1 -1 0 0 1 0 1 0 0 -1 1 0 0 0 1 0 0 0 1 -1 1 0 0 0 1 0 0 0 1 0 1 0 0 0 1 0 0 0 1 0 1 0 50 0 6 0 30 0 12 0 50 0 12 0 9z"/>
   <path class="fil0" d="M1156 197l-86 0c19,-33 67,-32 86,0zm-43 -74c-66,0 -113,64 -95,127 12,41 49,70 92,71l3 0 50 0 24 0 -12 -25 0 0 -12 -24 -50 0c-18,0 -34,-10 -43,-25l117 0c14,0 25,-11 25,-25 0,-55 -44,-99 -99,-99z"/>
   <path class="fil0" d="M1237 222l0 74c0,14 11,25 25,25 13,0 24,-11 24,-25l0 -74c0,-27 22,-49 50,-49l0 0 25 0 24 -50 0 0 0 0 -49 0c-19,0 -37,6 -52,15 -28,17 -47,48 -47,84z"/>
   <path class="fil0" d="M1433 138c-29,17 -48,48 -48,84l0 74c0,14 12,25 25,25 14,0 25,-11 25,-25l0 -74c0,-27 22,-49 49,-49l0 0 25 0 25 -50 0 0 0 0 -50 0c-18,0 -36,6 -51,15z"/>
   <path class="fil0" d="M1559 148l0 74c0,55 44,99 99,99l2 0 0 0 0 0 3 0 0 0 0 0 2 0 0 0 3 0 0 0 2 -1 0 0 3 0 0 0 2 0 0 0 3 -1 0 0 2 0 0 0 2 -1 1 0 2 -1 0 0 2 0 0 0 2 -1 1 0 2 -1 0 0 2 -1 0 0 2 -1 0 0 2 -1 1 0 2 -1 0 0 2 -1 0 0 2 -1 0 0 2 -1 0 0 0 0 0 42c-2,25 -23,45 -49,45l0 0 -25 0 0 0 -24 0 12 24 0 0 12 25 25 0c19,0 37,-5 52,-14 26,-16 44,-44 46,-76 1,-1 1,-2 1,-3 0,-2 0,-4 0,-6l0 -74c0,-1 0,-2 0,-3l0 -44 0 -2 0 0 0 0 0 0 0 0 0 0 0 0 0 -74c0,-14 -11,-25 -25,-25 -14,0 -25,11 -25,25l0 74c0,27 -22,50 -49,50 -28,0 -50,-23 -50,-50l0 0 0 -74c0,-14 -11,-25 -24,-25 -14,0 -25,11 -25,25z"/>
  </g>
  <path class="fil0" d="M0 223c0,54 44,99 99,99 55,0 99,-45 99,-99 0,-55 -44,-99 -99,-99l0 0 -25 49 25 0c27,0 49,22 49,50 0,27 -22,49 -49,49 -27,0 -50,-22 -50,-49l0 -21 0 -16 0 -13 0 -49 0 -13 0 -23 0 -63 0 0 0 -1 0 -1 0 0 0 -1 0 -1 0 0 0 -1 0 0 0 -1 0 -1 -1 0 0 -1 0 0 0 -1 0 0 -1 -1 0 0 0 -1 -1 -1 0 0 0 -1 0 0 -1 -1 0 0 0 -1 -1 0 0 0 -1 -1 0 0 0 -1 -1 0 0 -1 -1 0 0 0 -1 -1 0 0 0 -1 -1 0 0 0 -1 -1 0 0 -1 0 0 -1 -1 0 -1 0 0 0 -1 -1 0 0 -1 0 0 0 -1 0 0 -1 -1 0 -1 0 0 0 -1 0 0 0 -1 0 -1 0 0 0 -1 0 -1 0 0 -1 -1 1 -1 0 0 0 -1 0 0 0 -1 0 -1 0 0 0 -1 0 0 0 -1 0 -1 1 0 0 -1 0 0 0 -1 0 0 1 -1 0 -1 0 0 0 -1 1 0 0 -1 0 0 1 -1 0 0 0 -1 1 0 0 0 1 -1 0 0 0 -1 1 0 0 -1 1 0 0 0 1 -1 0 0 0 0 1 -1 0 0 1 0 0 -1 1 0 0 0 1 -1 1 0 0 0 1 0 0 0 1 -1 0 0 1 0 0 0 1 0 1 0 0 -1 1 0 0 0 1 0 1 0 0 0 1 0 1 0 0 0 49 0 14 0 23 0 13 0 49 0 13 0 16 0 8 0 13z"/>
  <path class="fil0" d="M322 124c-55,0 -99,44 -99,99 0,54 44,99 99,99 54,0 99,-45 99,-99 0,-55 -45,-99 -99,-99zm0 49c27,0 49,22 49,50 0,27 -22,49 -49,49 -28,0 -50,-22 -50,-49 0,-28 22,-50 50,-50z"/>
  <path class="fil0" d="M544 124c-54,0 -99,44 -99,99 0,54 45,99 99,99 55,0 99,-45 99,-99 0,-55 -44,-99 -99,-99zm0 49c28,0 50,22 50,50 0,27 -22,49 -50,49 -27,0 -49,-22 -49,-49 0,-28 22,-50 49,-50z"/>
  <path class="fil0" d="M668 25l0 160 0 37c0,55 44,99 99,99l24 0 1 0 -1 0 -4 -10 -20 -39c-27,0 -50,-23 -50,-50l0 -37 0 -160 0 -1 0 -1 0 0 0 -1 0 0 0 -1 0 -1 0 0 0 -1 0 0 -1 -1 0 -1 0 0 0 -1 0 0 -1 -1 0 0 0 -1 0 -1 -1 0 0 -1 0 0 0 -1 -1 0 0 -1 -1 0 0 -1 0 0 -1 0 0 -1 0 0 -1 -1 0 0 -1 -1 0 0 -1 0 0 -1 -1 0 0 0 -1 -1 0 0 -1 0 0 -1 -1 0 0 0 -1 -1 0 0 -1 0 0 0 -1 0 0 -1 -1 0 -1 0 0 0 -1 0 0 0 -1 -1 -1 0 0 0 -1 0 0 0 -1 0 -1 0 0 0 -1 0 -1 0 0 0 -1 0 0 0 -1 0 -1 0 0 1 -1 0 -1 0 0 0 -1 0 0 0 -1 1 0 0 -1 0 -1 0 0 0 -1 1 0 0 -1 0 0 1 -1 0 0 0 -1 1 0 0 -1 0 0 1 -1 0 0 0 0 1 -1 0 0 1 -1 0 0 1 0 0 -1 0 0 1 -1 0 0 1 0 0 0 1 -1 0 0 1 0 0 -1 1 0 1 0 0 0 1 -1 0 0 1 0 0 0 1 0 1 0 0 -1 1 0 0 0 1 0 1 0 0 0 1 0 0 0 1 0 1z"/>
  <path class="fil0" d="M792 194l0 17 0 11c0,55 44,99 99,99 54,0 99,-44 99,-99 0,-55 -45,-99 -99,-99l-1 0 -24 50 25 0c27,0 49,22 49,49 0,27 -22,50 -49,50 -28,0 -50,-23 -50,-50l0 -28 0 -9 0 -12 0 -50 0 -12 0 -30 0 -56 0 -1 0 -1 0 0 0 -1 0 0 0 -1 0 -1 0 0 -1 -1 0 0 0 -1 0 -1 0 0 0 -1 -1 0 0 -1 0 0 0 -1 -1 -1 0 0 0 -1 0 0 -1 -1 0 0 0 -1 -1 0 0 -1 -1 0 0 0 0 -1 -1 0 0 -1 -1 0 0 -1 0 0 -1 0 0 -1 -1 0 0 0 -1 -1 0 0 -1 0 0 -1 -1 0 0 0 -1 -1 0 0 -1 0 -1 0 0 0 -1 -1 0 0 -1 0 0 0 -1 0 -1 0 0 -1 -1 0 0 0 -1 0 -1 0 0 0 -1 0 -1 0 0 0 -1 0 -1 0 0 0 -1 0 0 0 -1 0 -1 1 0 0 -1 0 0 0 -1 0 -1 0 0 1 -1 0 0 0 -1 0 0 0 -1 1 0 0 -1 0 0 1 -1 0 0 0 -1 1 0 0 -1 0 0 1 -1 0 0 0 -1 1 0 0 -1 1 0 0 0 1 -1 0 0 0 0 1 -1 0 0 1 0 0 -1 1 0 0 0 1 -1 0 0 1 0 1 0 0 -1 1 0 0 0 1 0 0 0 1 -1 1 0 0 0 1 0 0 0 1 0 1 0 0 0 1 0 0 0 1 0 1 0 50 0 6 0 30 0 12 0 50 0 12 0 9z"/>
  <path class="fil0" d="M1156 197l-86 0c19,-33 67,-32 86,0zm-43 -74c-66,0 -113,64 -95,127 12,41 49,70 92,71l3 0 50 0 24 0 -12 -25 0 0 -12 -24 -50 0c-18,0 -34,-10 -43,-25l117 0c14,0 25,-11 25,-25 0,-55 -44,-99 -99,-99z"/>
  <path class="fil0" d="M1237 222l0 74c0,14 11,25 25,25 13,0 24,-11 24,-25l0 -74c0,-27 22,-49 50,-49l0 0 25 0 24 -50 0 0 0 0 -49 0c-19,0 -37,6 -52,15 -28,17 -47,48 -47,84z"/>
  <path class="fil0" d="M1433 138c-29,17 -48,48 -48,84l0 74c0,14 12,25 25,25 14,0 25,-11 25,-25l0 -74c0,-27 22,-49 49,-49l0 0 25 0 25 -50 0 0 0 0 -50 0c-18,0 -36,6 -51,15z"/>
  <path class="fil0" d="M1559 148l0 74c0,55 44,99 99,99l2 0 0 0 0 0 3 0 0 0 0 0 2 0 0 0 3 0 0 0 2 -1 0 0 3 0 0 0 2 0 0 0 3 -1 0 0 2 0 0 0 2 -1 1 0 2 -1 0 0 2 0 0 0 2 -1 1 0 2 -1 0 0 2 -1 0 0 2 -1 0 0 2 -1 1 0 2 -1 0 0 2 -1 0 0 2 -1 0 0 2 -1 0 0 0 0 0 42c-2,25 -23,45 -49,45l0 0 -25 0 0 0 -24 0 12 24 0 0 12 25 25 0c19,0 37,-5 52,-14 26,-16 44,-44 46,-76 1,-1 1,-2 1,-3 0,-2 0,-4 0,-6l0 -74c0,-1 0,-2 0,-3l0 -44 0 -2 0 0 0 0 0 0 0 0 0 0 0 0 0 -74c0,-14 -11,-25 -25,-25 -14,0 -25,11 -25,25l0 74c0,27 -22,50 -49,50 -28,0 -50,-23 -50,-50l0 0 0 -74c0,-14 -11,-25 -24,-25 -14,0 -25,11 -25,25z"/>
 </g>
</svg>
