<?xml version="1.0" encoding="utf-8"?>
<!-- Generator: Adobe Illustrator 15.0.0, SVG Export Plug-In . SVG Version: 6.00 Build 0)  -->
<!DOCTYPE svg PUBLIC "-//W3C//DTD SVG 1.1//EN" "http://www.w3.org/Graphics/SVG/1.1/DTD/svg11.dtd">
<svg version="1.1" id="Capa_1" xmlns="http://www.w3.org/2000/svg" xmlns:xlink="http://www.w3.org/1999/xlink" x="0px" y="0px"
	 width="216px" height="146px" viewBox="0 0 216 146" enable-background="new 0 0 216 146" xml:space="preserve">
<path d="M160.375,42.5c4.211,0,7.625-3.414,7.625-7.625v-15.25h-15.25V12H53.625C49.432,12,46,15.431,46,19.625v106.75
	c0,4.194,3.431,7.625,7.625,7.625h99.125v-30.5h7.625c4.211,0,7.625-3.414,7.625-7.625v-15.25h-15.25V73h7.625
	c4.211,0,7.625-3.414,7.625-7.625v-15.25h-15.25V42.5H160.375z M114.625,42.54c8.4,0,15.211,6.81,15.211,15.21
	s-6.811,15.21-15.211,15.21s-15.211-6.81-15.211-15.21S106.225,42.54,114.625,42.54z M76.5,126.375h-7.625V19.625H76.5V126.375z
	 M137.5,103.5H91.75v-7.625c0-8.423,6.828-15.25,15.25-15.25l0,0h15.25c8.423,0,15.25,6.827,15.25,15.25V103.5z"/>
</svg>
