<?xml version="1.0" encoding="utf-8"?>
<!-- Generator: Adobe Illustrator 15.0.0, SVG Export Plug-In . SVG Version: 6.00 Build 0)  -->
<!DOCTYPE svg PUBLIC "-//W3C//DTD SVG 1.1//EN" "http://www.w3.org/Graphics/SVG/1.1/DTD/svg11.dtd">
<svg version="1.1"
	 id="Capa_1" xmlns:dc="http://purl.org/dc/elements/1.1/" inkscape:version="0.48.2 r9819" sodipodi:docname="block.svg" xmlns:cc="http://creativecommons.org/ns#" xmlns:svg="http://www.w3.org/2000/svg" xmlns:rdf="http://www.w3.org/1999/02/22-rdf-syntax-ns#" xmlns:inkscape="http://www.inkscape.org/namespaces/inkscape" xmlns:sodipodi="http://sodipodi.sourceforge.net/DTD/sodipodi-0.dtd"
	 xmlns="http://www.w3.org/2000/svg" xmlns:xlink="http://www.w3.org/1999/xlink" x="0px" y="0px" width="216px" height="146px"
	 viewBox="0 0 216 146" enable-background="new 0 0 216 146" xml:space="preserve">
<sodipodi:namedview  id="namedview15" objecttolerance="10" borderopacity="1" inkscape:window-width="640" bordercolor="#666666" guidetolerance="10" pagecolor="#ffffff" gridtolerance="10" inkscape:pageopacity="0" inkscape:pageshadow="2" inkscape:window-height="480" showgrid="false" inkscape:zoom="1.6164384" inkscape:cx="108" inkscape:cy="73" inkscape:window-x="0" inkscape:window-y="0" inkscape:window-maximized="0" inkscape:current-layer="Capa_1">
	</sodipodi:namedview>
<g>
	<polygon points="180.499,35.78 174.805,35.78 174.805,98.882 35.226,98.882 35.226,104.579 180.499,104.579 	"/>
	<polygon points="184.774,46.699 184.774,109.803 45.195,109.803 45.195,115.5 190.471,115.5 190.471,46.699 	"/>
	<path d="M170.06,28.5H29.529v65.951H170.06V28.5z M140.014,38.375h8.231v10.127h-8.231V38.375z M124.188,38.375h8.228v10.127
		h-8.228V38.375z M39.973,43.752c0-5.246,3.259-9.495,7.28-9.495c2.689,0,5.01,1.92,6.271,4.75h51.966v8.862H53.789
		c-1.18,3.175-3.65,5.381-6.536,5.381C43.234,53.248,39.973,48.996,39.973,43.752z M127.648,67.805H44.719v-6.329h82.929V67.805z
		 M164.047,88.102h-34.498v-5.21h34.498V88.102z M164.068,48.5h-8.228V38.373h8.228V48.5z"/>
</g>
</svg>
