<?xml version="1.0" encoding="utf-8"?>
<!-- Generator: Adobe Illustrator 15.0.0, SVG Export Plug-In . SVG Version: 6.00 Build 0)  -->
<!DOCTYPE svg PUBLIC "-//W3C//DTD SVG 1.1//EN" "http://www.w3.org/Graphics/SVG/1.1/DTD/svg11.dtd">
<svg version="1.1"
	 id="Capa_1" xmlns:dc="http://purl.org/dc/elements/1.1/" inkscape:version="0.48.2 r9819" sodipodi:docname="block.svg" xmlns:cc="http://creativecommons.org/ns#" xmlns:svg="http://www.w3.org/2000/svg" xmlns:rdf="http://www.w3.org/1999/02/22-rdf-syntax-ns#" xmlns:inkscape="http://www.inkscape.org/namespaces/inkscape" xmlns:sodipodi="http://sodipodi.sourceforge.net/DTD/sodipodi-0.dtd"
	 xmlns="http://www.w3.org/2000/svg" xmlns:xlink="http://www.w3.org/1999/xlink" x="0px" y="0px" width="216px" height="146px"
	 viewBox="0 0 216 146" enable-background="new 0 0 216 146" xml:space="preserve">
<sodipodi:namedview  id="namedview15" objecttolerance="10" borderopacity="1" inkscape:window-width="640" bordercolor="#666666" guidetolerance="10" pagecolor="#ffffff" gridtolerance="10" inkscape:pageopacity="0" inkscape:pageshadow="2" inkscape:window-height="480" showgrid="false" inkscape:zoom="1.6164384" inkscape:cx="108" inkscape:cy="73" inkscape:window-x="0" inkscape:window-y="0" inkscape:window-maximized="0" inkscape:current-layer="Capa_1">
	</sodipodi:namedview>
<path d="M175.188,92.375V10.5h-131v81.875h17.031c0.448,1.431,1.103,2.807,2.002,4.094c-1.719,2.461-2.659,5.212-2.659,8.188
	s0.939,5.727,2.659,8.188c-1.719,2.461-2.659,5.212-2.659,8.188c0,12.059,15.152,20.469,36.844,20.469
	c21.69,0,36.844-8.41,36.844-20.469c0-2.976-0.936-5.727-2.656-8.188c0,0-0.007,0-0.007,0.007c1.721-2.461,2.663-5.219,2.663-8.194
	s-0.936-5.727-2.656-8.188c0,0-0.007,0-0.007,0.007c0.896-1.286,1.559-2.663,2.007-4.101H175.188z M61.219,84.188h-8.844v-65.5H167
	v65.5h-33.406c-0.448-1.438-1.102-2.814-2.007-4.102c0,0.008,0.007,0.008,0.007,0.008h19.031c0-6.788,5.501-12.281,12.281-12.281
	v-32.75c-6.78,0-12.281-5.493-12.281-12.281h-31.221c6.379,5.55,10.752,16.23,10.752,28.656c0,8.747-2.199,16.582-5.709,22.421
	c-6.525-3.792-15.892-6.046-27.041-6.046c-1.84,0-3.562,0.145-5.305,0.255c0.008,0,0.013,0,0.017,0
	c-1.831-4.853-2.898-10.522-2.898-16.63c0-12.426,4.381-23.108,10.746-28.656H68.75c0,6.789-5.5,12.281-12.281,12.281v32.75
	c5.182,0,9.595,3.213,11.398,7.756C64.584,78.007,62.242,80.895,61.219,84.188z M138.344,51.438c0-3.39,2.751-6.141,6.141-6.141
	s6.141,2.75,6.141,6.141s-2.751,6.141-6.141,6.141S138.344,54.828,138.344,51.438z M128.844,77.088
	c-0.118-0.111-0.189-0.24-0.32-0.354C128.654,76.848,128.726,76.977,128.844,77.088z M68.75,51.438c0-3.39,2.75-6.141,6.141-6.141
	s6.141,2.75,6.141,6.141s-2.75,6.141-6.141,6.141S68.75,54.828,68.75,51.438z M97.406,133.312c-15.827,0-28.656-5.501-28.656-12.281
	c0-0.896,0.249-1.758,0.671-2.6c6.545,4.168,16.248,6.693,27.985,6.693c11.736,0,21.445-2.525,27.983-6.693
	c0.424,0.842,0.673,1.704,0.673,2.6C126.062,127.812,113.236,133.312,97.406,133.312z M97.406,116.938
	c-15.827,0-28.656-5.501-28.656-12.281c0-0.896,0.249-1.758,0.671-2.6c6.545,4.168,16.248,6.693,27.985,6.693
	c11.736,0,21.445-2.525,27.983-6.693c0.424,0.842,0.673,1.704,0.673,2.6C126.062,111.437,113.236,116.938,97.406,116.938z
	 M97.406,100.562c-15.827,0-28.656-5.501-28.656-12.281S81.58,76,97.406,76c15.83,0,28.656,5.501,28.656,12.281
	S113.236,100.562,97.406,100.562z"/>
</svg>
