<?xml version="1.0" encoding="utf-8"?>
<!-- Generator: Adobe Illustrator 15.0.0, SVG Export Plug-In . SVG Version: 6.00 Build 0)  -->
<!DOCTYPE svg PUBLIC "-//W3C//DTD SVG 1.1//EN" "http://www.w3.org/Graphics/SVG/1.1/DTD/svg11.dtd">
<svg version="1.1" id="Capa_1" xmlns="http://www.w3.org/2000/svg" xmlns:xlink="http://www.w3.org/1999/xlink" x="0px" y="0px"
	 width="216px" height="146px" viewBox="0 0 216 146" enable-background="new 0 0 216 146" xml:space="preserve">
<g>
	<path d="M60.918,120.45h94.163c0.753,0,1.369-0.615,1.369-1.369V24.918c0-0.753-0.616-1.369-1.369-1.369H60.918
		c-0.753,0-1.369,0.616-1.369,1.369v10.744c1.629,0.26,2.875,1.67,2.875,3.381v12.044c0,1.697-1.245,3.121-2.875,3.38V89.56
		c1.629,0.261,2.875,1.67,2.875,3.381v12.044c0,1.697-1.245,3.121-2.875,3.381v10.716C59.549,119.835,60.166,120.45,60.918,120.45z
		 M108,45.339c14.727,0,26.662,11.934,26.662,26.661c0,14.727-11.936,26.662-26.662,26.662c-14.727,0-26.661-11.936-26.661-26.662
		C81.339,57.273,93.273,45.339,108,45.339z"/>
	<path d="M46,16.843v110.313c0,3.778,3.066,6.844,6.843,6.844h110.313c3.778,0,6.844-3.065,6.844-6.844V16.843
		c0-3.777-3.065-6.843-6.844-6.843H52.843C49.066,10,46,13.066,46,16.843z M52.569,92.927c0-1.697,1.246-3.12,2.875-3.381V54.454
		c-1.629-0.26-2.875-1.67-2.875-3.381V39.029c0-1.697,1.246-3.121,2.875-3.381v-10.73c0-3.025,2.45-5.475,5.475-5.475h94.163
		c3.024,0,5.476,2.45,5.476,5.475v94.163c0,3.024-2.451,5.476-5.476,5.476H60.918c-3.025,0-5.475-2.451-5.475-5.476v-10.729
		c-1.629-0.26-2.875-1.67-2.875-3.381V92.927z"/>
	<circle cx="108" cy="72" r="6.98"/>
	<path d="M107.973,60.503h0.055c1.492,0,2.71-1.218,2.71-2.71v-4.708c0-1.492-1.218-2.71-2.71-2.71h-0.055
		c-1.492,0-2.71,1.218-2.71,2.71v4.708C105.263,59.285,106.481,60.503,107.973,60.503z"/>
	<path d="M122.206,74.737h4.709c1.491,0,2.71-1.218,2.71-2.71v-0.055c0-1.492-1.219-2.71-2.71-2.71h-4.709
		c-1.491,0-2.71,1.218-2.71,2.71v0.055C119.496,73.52,120.715,74.737,122.206,74.737z"/>
	<path d="M108.027,83.496h-0.055c-1.492,0-2.71,1.219-2.71,2.71v4.709c0,1.491,1.218,2.71,2.71,2.71h0.055
		c1.492,0,2.71-1.219,2.71-2.71v-4.709C110.737,84.715,109.52,83.496,108.027,83.496z"/>
	<path d="M96.503,72.027v-0.055c0-1.492-1.218-2.71-2.71-2.71h-4.708c-1.492,0-2.71,1.218-2.71,2.71v0.055
		c0,1.492,1.218,2.71,2.71,2.71h4.708C95.285,74.737,96.503,73.533,96.503,72.027z"/>
</g>
</svg>
