<?xml version="1.0" encoding="utf-8"?>
<!-- Generator: Adobe Illustrator 17.0.0, SVG Export Plug-In . SVG Version: 6.00 Build 0)  -->
<!DOCTYPE svg PUBLIC "-//W3C//DTD SVG 1.1//EN" "http://www.w3.org/Graphics/SVG/1.1/DTD/svg11.dtd">
<svg version="1.1" id="Capa_1" xmlns="http://www.w3.org/2000/svg" xmlns:xlink="http://www.w3.org/1999/xlink" x="0px" y="0px"
	 width="64px" height="64px" viewBox="0 0 64 64" enable-background="new 0 0 64 64" xml:space="preserve">
<g>
	<path d="M19.683,51.032c0-2.425,1.968-4.393,4.393-4.393l0,0c2.425,0,4.393,1.968,4.393,4.393l0,0c0,2.434-1.968,4.393-4.393,4.393
		l0,0C21.651,55.426,19.683,53.466,19.683,51.032z M19.683,38.73c0-2.425,1.968-4.393,4.393-4.393l0,0
		c2.425,0,4.393,1.968,4.393,4.393l0,0c0,2.425-1.968,4.393-4.393,4.393l0,0C21.651,43.124,19.683,41.156,19.683,38.73z
		 M19.683,26.429c0-2.425,1.968-4.393,4.393-4.393l0,0c2.425,0,4.393,1.968,4.393,4.393l0,0c0,2.434-1.968,4.393-4.393,4.393l0,0
		C21.651,30.822,19.683,28.863,19.683,26.429z"/>
</g>
<g>
	<path d="M32.196,51.032c0-2.425,1.968-4.393,4.393-4.393l0,0c2.425,0,4.393,1.968,4.393,4.393l0,0c0,2.434-1.968,4.393-4.393,4.393
		l0,0C34.164,55.426,32.196,53.466,32.196,51.032z M32.196,38.73c0-2.425,1.968-4.393,4.393-4.393l0,0
		c2.425,0,4.393,1.968,4.393,4.393l0,0c0,2.425-1.968,4.393-4.393,4.393l0,0C34.164,43.124,32.196,41.156,32.196,38.73z
		 M32.196,26.429c0-2.425,1.968-4.393,4.393-4.393l0,0c2.425,0,4.393,1.968,4.393,4.393l0,0c0,2.434-1.968,4.393-4.393,4.393l0,0
		C34.164,30.822,32.196,28.863,32.196,26.429z M32.196,14.127c0-2.425,1.968-4.393,4.393-4.393l0,0c2.425,0,4.393,1.968,4.393,4.393
		l0,0c0,2.425-1.968,4.393-4.393,4.393l0,0C34.164,18.521,32.196,16.552,32.196,14.127z"/>
</g>
<g>
	<path d="M44.699,51.032c0-2.425,1.968-4.393,4.393-4.393l0,0c2.434,0,4.393,1.968,4.393,4.393l0,0c0,2.425-1.959,4.393-4.393,4.393
		l0,0C46.668,55.426,44.699,53.458,44.699,51.032z M7.718,51.032c0-2.425,1.968-4.393,4.393-4.393l0,0
		c2.434,0,4.393,1.968,4.393,4.393l0,0c0,2.425-1.959,4.393-4.393,4.393l0,0C9.686,55.426,7.718,53.458,7.718,51.032z M44.699,38.73
		c0-2.425,1.968-4.393,4.393-4.393l0,0c2.434,0,4.393,1.968,4.393,4.393l0,0c0,2.425-1.959,4.393-4.393,4.393l0,0
		C46.668,43.124,44.699,41.156,44.699,38.73z"/>
</g>
</svg>
